<svg width="1024" height="559" version="1.1" xmlns="http://www.w3.org/2000/svg" desc="Created with imagetracer.js version 1.2.6" ><path fill="rgb(232,145,60)" stroke="rgb(232,145,60)" stroke-width="1" opacity="1" d="M 479.5 77 L 544.5 77 Q 555.1 80.4 561 88.5 L 565 99.5 L 565 122 Q 583 121.7 590 133.5 L 595 144.5 L 596 155.5 L 595 159.5 Q 597.8 161.3 596 167.5 L 595 168.5 L 595 207.5 Q 597.8 209.2 596 215.5 L 595 216.5 L 595 263.5 L 596 264.5 L 596 287.5 Q 593.2 289.3 595 295.5 L 596 296.5 L 596 311.5 Q 593.2 313.3 595 319.5 L 596 320.5 L 596 343.5 L 595 344.5 L 595 359.5 L 596 360.5 L 596 369.5 L 595 370.5 L 594 382.5 Q 590.8 391.3 583.5 396 L 578.5 399 L 568.5 401 L 567 402.5 L 567 470.5 Q 564.8 477.3 559.5 481 L 553.5 484 L 471.5 484 Q 463.9 482.1 460 476.5 L 457 470.5 L 457 401 Q 450.1 401.8 445.5 399 L 434 389.5 L 429 378.5 L 429 144.5 Q 432 133 440.5 127 Q 446.8 121.1 459 122 L 459 100.5 L 460 96.5 Q 463.1 86.6 470.5 81 L 479.5 77 Z M 485 86 L 478 88 Q 472 92 469 100 L 469 128 L 468 130 L 465 132 Q 452 130 447 135 L 441 141 L 438 151 L 438 373 L 441 383 Q 445 389 454 391 L 572 391 L 578 388 Q 584 384 586 376 L 586 149 L 580 136 L 572 132 Q 562 133 557 131 L 555 128 L 555 99 L 553 95 L 547 88 L 540 86 L 485 86 Z M 467 401 L 467 469 L 468 471 L 473 474 L 553 474 L 556 472 L 558 467 L 558 403 L 557 401 L 467 401 Z " /><path fill="rgb(232,145,60)" stroke="rgb(232,145,60)" stroke-width="1" opacity="1" d="M 497.5 96 L 527.5 96 Q 536.8 97.8 541 104.5 L 545 112.5 L 545 128.5 L 540.5 132 L 484.5 132 L 480 129.5 L 479 127.5 L 479 113.5 Q 480.8 105.3 486.5 101 L 497.5 96 Z M 498 106 L 494 108 L 489 115 Q 487 120 491 122 L 535 122 L 536 121 L 534 112 L 527 106 L 498 106 Z " /><path fill="rgb(232,145,60)" stroke="rgb(232,145,60)" stroke-width="1" opacity="1" d="M 482.5 431 L 497.5 431 L 502 434.5 Q 503 439 500.5 440 L 498.5 441 L 481.5 441 L 479 440 L 478 434.5 L 482.5 431 Z " /><path fill="rgb(232,145,60)" stroke="rgb(232,145,60)" stroke-width="1" opacity="1" d="M 526.5 431 L 542.5 431 L 546 433.5 Q 547.3 439.8 543.5 441 L 525.5 441 L 523 438.5 L 522 435.5 L 524.5 432 L 526.5 431 Z " /><path fill="rgb(253,252,246)" stroke="rgb(253,252,246)" stroke-width="1" opacity="1" d="M 476 64 Q 481.2 62.3 480 66 Q 474.8 67.7 476 64 Z " /><path fill="rgb(253,252,246)" stroke="rgb(253,252,246)" stroke-width="1" opacity="1" d="M 544.5 64 L 548 64.5 L 545.5 66 L 544.5 64 Z " /><path fill="rgb(253,252,246)" stroke="rgb(253,252,246)" stroke-width="1" opacity="1" d="M 471.5 70 Q 478.3 68.2 480 71.5 L 479.5 74 L 476.5 73 L 474.5 74 L 470 71.5 L 471.5 70 Z " /><path fill="rgb(253,252,246)" stroke="rgb(253,252,246)" stroke-width="1" opacity="1" d="M 549.5 70 Q 553.9 68.5 553 71.5 L 548.5 74 L 546.5 73 L 544 74.5 L 557 78 Q 555.9 74.7 560 76 Q 557.9 81.2 562.5 80 L 561 82.5 L 565.5 90 L 567 89.5 L 566 93.5 L 567 94.5 L 567 111.5 L 570 115.5 L 569 119 L 574.5 120 L 578.5 120 L 580 120.5 L 579.5 122 L 581.5 121 L 582.5 123 L 584 122.5 Q 583.3 124.8 585.5 124 L 588 125 L 589 127.5 L 588 128.5 L 591 131.5 L 593.5 135 Q 595.8 134.3 595 136.5 L 597 136.5 L 599 148.5 L 598 149.5 L 598 376.5 Q 600.5 378 597 379.5 L 597.5 385 L 600 381.5 L 599.5 380 L 601.5 380 Q 603.8 379.3 603 381.5 Q 605.3 382.7 602.5 384 Q 597.3 382.3 599 387.5 L 594.5 392 L 592 392 Q 593 395.8 590.5 397 L 590 395 Q 587.3 393.9 588 396.5 L 590 400 L 585 399.5 L 585.5 398 L 582 399 L 582 401 L 577 401 L 577 402.5 L 572.5 405 Q 570.8 402.3 569 406.5 L 570 416.5 Q 567.5 418 569 423.5 Q 571.8 425.3 570 431.5 Q 567.2 433.3 569 439.5 L 570.5 448 L 572 424.5 L 571 423.5 L 571 416 L 575 417.5 L 574 431.5 Q 576.8 433.3 575 439.5 L 574 440.5 L 574 448 L 571 448.5 L 571 465.5 Q 567.3 467.3 569 474.5 L 566 478.5 L 567 481.5 Q 567.7 484.1 565 483 Q 566.1 480.3 563.5 481 L 561.5 484 L 563.5 483 L 565.5 487 L 568 487.5 L 565.5 488 Q 564 484.5 562.5 487 L 560.5 488 L 560 485 Q 555.8 484 554.5 487 L 553 486.5 L 552.5 488 L 549.5 487 L 545.5 488 L 544.5 487 L 488.5 486 Q 486.7 488.8 480.5 487 L 479.5 486 L 470.5 486 L 467.5 488 L 465.5 488 L 464 487.5 L 465 484.5 L 464 484.5 L 462.5 487 L 461 486.5 L 462 484.5 L 458 481.5 L 459 479.5 L 457 479.5 L 457 477.5 L 455 467.5 L 453 465.5 L 453 416.5 L 455 408.5 L 452.5 404 L 448 404.5 L 448.5 406 L 442 402.5 L 444 399.5 L 439.5 399 L 439.5 401 L 437.5 397 L 436 397.5 L 434.5 395 L 433.5 397 L 430.5 390 L 430 392 Q 426.7 393.3 428 388.5 L 427 388.5 L 426.5 391 L 426 384.5 L 427 379.5 L 425.5 376 L 424.5 378 L 424 376.5 L 426 372.5 L 426 352.5 Q 423.3 350.7 425 344.5 L 426 343.5 L 426 160.5 L 427 156.5 Q 424.3 154.8 426 148.5 L 427 144.5 L 426 141.5 L 428 137.5 L 427.5 136 L 431 135 L 433 131.5 L 431 128.5 L 432.5 123 L 436.5 126 L 442.5 121 L 444 121.5 L 444.5 120 L 446.5 121 L 455 119 L 456 116.5 L 456 114.5 L 454 110.5 L 454 104.5 L 454 102.5 Q 452.9 99.2 455.5 100 L 458 94.5 L 458 92.5 Q 459.7 84.2 465.5 80 Q 472 75.5 481.5 74 L 527.5 74 L 532.5 73 L 535.5 74 L 537.5 74 Q 543.6 75.1 546 72.5 L 545.5 71 L 549.5 70 Z M 480 77 L 471 81 Q 463 87 460 97 L 459 101 L 459 122 Q 447 121 441 127 Q 432 133 429 145 L 429 379 L 434 390 L 446 399 Q 450 402 457 401 L 457 471 L 460 477 Q 464 482 472 484 L 554 484 L 560 481 Q 565 477 567 471 L 567 403 L 569 401 L 579 399 L 584 396 Q 591 391 594 383 L 595 371 L 596 370 L 596 361 L 595 360 L 595 345 L 596 344 L 596 321 L 595 320 Q 593 313 596 312 L 596 297 L 595 296 Q 593 289 596 288 L 596 265 L 595 264 L 595 217 L 596 216 Q 598 209 595 208 L 595 169 L 596 168 Q 598 161 595 160 L 596 156 L 595 145 L 590 134 Q 583 122 565 122 L 565 100 L 561 89 Q 555 80 545 77 L 480 77 Z M 457 107 L 456 111 L 457 111 L 457 107 Z M 595 389 L 593 391 L 595 391 L 595 389 Z M 467 485 L 468 487 Q 469 484 467 485 Z " /><path fill="rgb(253,252,246)" stroke="rgb(253,252,246)" stroke-width="1" opacity="1" d="M 491.5 71 L 495 71.5 L 491.5 72 L 491.5 71 Z " /><path fill="rgb(253,252,246)" stroke="rgb(253,252,246)" stroke-width="1" opacity="1" d="M 464 76 Q 467 75 466 78 Q 463 79 464 76 Z " /><path fill="rgb(253,252,246)" stroke="rgb(253,252,246)" stroke-width="1" opacity="1" d="M 484.5 86 L 539.5 86 L 546.5 88 L 553 94.5 L 555 98.5 L 555 127.5 L 557 131 Q 561.9 133.1 571.5 132 L 580 136 L 586 148.5 L 586 375.5 Q 583.9 383.9 577.5 388 L 571.5 391 L 453.5 391 Q 445.2 388.9 441 382.5 L 438 372.5 L 438 150.5 L 441 140.5 L 446.5 135 Q 452 130 464.5 132 L 468 129.5 L 469 127.5 L 469 99.5 Q 471.6 92.1 477.5 88 L 484.5 86 Z M 485 89 L 485 91 L 480 91 L 480 95 L 485 95 L 485 98 Q 481 99 482 97 L 481 97 L 480 96 L 478 96 L 479 94 Q 480 91 478 92 Q 475 93 475 97 L 475 99 Q 476 101 474 100 L 471 104 L 472 128 L 473 129 L 472 132 L 466 134 L 464 134 Q 462 137 457 135 L 455 135 Q 449 134 448 138 L 452 139 Q 454 144 449 142 L 448 146 L 446 145 L 448 139 L 443 143 L 444 145 Q 446 152 441 150 L 441 176 L 440 177 L 440 192 L 441 193 L 441 353 L 440 354 L 441 375 Q 444 376 442 378 L 443 380 L 447 382 L 447 381 L 448 381 L 446 385 Q 448 388 450 384 L 451 386 Q 450 388 453 387 L 452 385 L 455 384 L 456 386 L 455 388 L 461 388 L 457 387 L 480 386 L 481 385 Q 487 383 489 386 Q 495 388 497 385 L 504 386 L 496 387 Q 489 389 488 386 L 464 388 L 480 388 L 481 389 Q 487 391 489 388 Q 495 386 497 389 Q 503 391 505 388 L 529 388 L 530 389 L 560 389 L 560 386 L 571 386 L 578 385 L 576 382 L 579 380 Q 580 382 577 381 Q 576 384 579 383 L 580 381 L 581 380 L 578 377 L 581 378 L 583 375 Q 582 369 584 368 L 584 352 L 583 351 L 583 338 L 584 337 L 584 304 L 583 303 L 583 274 L 584 273 L 584 256 L 583 255 L 583 153 L 579 147 L 578 142 L 580 142 L 575 137 L 562 134 L 558 136 L 558 135 L 557 134 L 554 131 L 553 132 L 553 131 L 551 130 L 552 128 L 551 123 Q 552 119 550 120 L 548 121 L 549 115 L 549 118 L 552 120 L 551 118 L 551 114 L 547 112 L 548 128 L 549 124 L 549 131 L 549 133 L 548 136 Q 545 137 546 135 L 543 135 L 541 134 L 540 137 L 536 136 L 488 136 L 487 137 L 483 134 L 479 136 Q 475 135 476 132 L 476 130 L 475 129 L 475 114 L 474 111 L 477 109 L 479 105 L 488 98 Q 490 97 488 96 L 497 93 L 528 93 L 529 94 L 536 94 L 535 97 L 539 98 L 542 102 L 544 101 L 547 107 Q 546 109 549 108 L 550 112 L 553 112 L 552 103 Q 551 100 550 102 Q 546 100 548 94 L 545 92 L 547 95 L 545 98 L 543 99 L 539 97 L 540 95 L 545 95 L 544 92 L 543 92 L 535 91 L 539 90 L 539 89 L 513 90 L 512 91 L 497 90 L 496 89 L 485 89 Z M 498 96 L 487 101 Q 481 105 479 114 L 479 128 L 480 130 L 485 132 L 541 132 L 545 129 L 545 113 L 541 105 Q 537 98 528 96 L 498 96 Z M 564 387 L 564 388 L 568 388 L 564 387 Z " /><path fill="rgb(253,252,246)" stroke="rgb(253,252,246)" stroke-width="1" opacity="1" d="M 570.5 104 L 572 110.5 L 570 111.5 L 570.5 104 Z " /><path fill="rgb(253,252,246)" stroke="rgb(253,252,246)" stroke-width="1" opacity="1" d="M 497.5 106 L 526.5 106 L 534 111.5 L 536 120.5 L 534.5 122 L 490.5 122 Q 487.5 120.5 489 114.5 L 493.5 108 L 497.5 106 Z M 502 108 L 497 109 L 495 114 L 494 113 L 491 118 Q 496 117 498 120 L 527 120 L 530 118 L 532 119 L 532 114 L 531 114 L 529 114 L 528 112 L 524 109 L 521 110 L 520 108 L 513 108 L 512 109 L 503 109 L 502 108 Z " /><path fill="rgb(253,252,246)" stroke="rgb(253,252,246)" stroke-width="1" opacity="1" d="M 500.5 110 L 503 110.5 L 500.5 111 L 500.5 110 Z " /><path fill="rgb(253,252,246)" stroke="rgb(253,252,246)" stroke-width="1" opacity="1" d="M 521.5 111 L 524 111.5 L 521.5 112 L 521.5 111 Z " /><path fill="rgb(253,252,246)" stroke="rgb(253,252,246)" stroke-width="1" opacity="1" d="M 574 112 Q 576.7 110.9 576 113.5 L 580 116.5 L 576.5 118 Q 573 116.7 574 112 Z " /><path fill="rgb(253,252,246)" stroke="rgb(253,252,246)" stroke-width="1" opacity="1" d="M 497.5 115 L 512 115.5 L 497.5 116 L 497.5 115 Z " /><path fill="rgb(253,252,246)" stroke="rgb(253,252,246)" stroke-width="1" opacity="1" d="M 524.5 115 L 527 115.5 L 524.5 116 L 524.5 115 Z " /><path fill="rgb(253,252,246)" stroke="rgb(253,252,246)" stroke-width="1" opacity="1" d="M 425 128 L 430 128 L 430 131 L 425 130 L 425 128 Z " /><path fill="rgb(253,252,246)" stroke="rgb(253,252,246)" stroke-width="1" opacity="1" d="M 594 128 Q 599.6 125.8 598 131.5 L 595 133 L 594 128 Z " /><path fill="rgb(253,252,246)" stroke="rgb(253,252,246)" stroke-width="1" opacity="1" d="M 559.5 138 L 560.5 140 L 558 139.5 L 559.5 138 Z " /><path fill="rgb(253,252,246)" stroke="rgb(253,252,246)" stroke-width="1" opacity="1" d="M 607.5 141 L 608 143 L 606 142.5 L 607.5 141 Z " /><path fill="rgb(253,252,246)" stroke="rgb(253,252,246)" stroke-width="1" opacity="1" d="M 424.5 149 L 425 151.5 L 424 151.5 L 424.5 149 Z " /><path fill="rgb(253,252,246)" stroke="rgb(253,252,246)" stroke-width="1" opacity="1" d="M 442 160 L 444 160.5 L 444 273 L 442 272.5 L 442 160 Z " /><path fill="rgb(253,252,246)" stroke="rgb(253,252,246)" stroke-width="1" opacity="1" d="M 579.5 161 L 580 174.5 L 579 174.5 L 579.5 161 Z " /><path fill="rgb(253,252,246)" stroke="rgb(253,252,246)" stroke-width="1" opacity="1" d="M 579.5 192 L 581 195.5 L 579.5 199 L 579.5 192 Z " /><path fill="rgb(253,252,246)" stroke="rgb(253,252,246)" stroke-width="1" opacity="1" d="M 579.5 223 L 580 255.5 L 579 255.5 L 579.5 223 Z " /><path fill="rgb(253,252,246)" stroke="rgb(253,252,246)" stroke-width="1" opacity="1" d="M 579.5 272 L 580 303.5 L 579 303.5 L 579.5 272 Z " /><path fill="rgb(253,252,246)" stroke="rgb(253,252,246)" stroke-width="1" opacity="1" d="M 579.5 336 L 580 366.5 Q 583 367.8 582 372 L 579.5 373 L 579.5 336 Z " /><path fill="rgb(253,252,246)" stroke="rgb(253,252,246)" stroke-width="1" opacity="1" d="M 443.5 351 L 445 373.5 L 442 371.5 L 442 352.5 L 443.5 351 Z " /><path fill="rgb(253,252,246)" stroke="rgb(253,252,246)" stroke-width="1" opacity="1" d="M 512.5 386 L 527 386.5 L 512.5 387 L 512.5 386 Z " /><path fill="rgb(253,252,246)" stroke="rgb(253,252,246)" stroke-width="1" opacity="1" d="M 536.5 386 L 544 386.5 L 536.5 387 L 536.5 386 Z " /><path fill="rgb(253,252,246)" stroke="rgb(253,252,246)" stroke-width="1" opacity="1" d="M 432.5 398 L 433.5 400 Q 430.7 400.7 432.5 398 Z " /><path fill="rgb(253,252,246)" stroke="rgb(253,252,246)" stroke-width="1" opacity="1" d="M 467 401 L 556.5 401 L 558 402.5 L 558 466.5 L 556 472 L 552.5 474 L 472.5 474 L 468 470.5 L 467 468.5 L 467 401 Z M 470 403 Q 469 406 472 405 Q 474 410 469 408 L 470 411 L 469 413 Q 472 416 470 424 L 471 425 Q 473 432 469 431 L 469 449 L 472 449 L 472 463 L 470 463 L 470 465 L 469 467 L 471 466 L 471 468 L 471 469 Q 474 468 473 471 L 477 472 L 496 471 L 482 470 L 478 468 Q 472 470 473 466 L 476 467 L 479 466 Q 481 465 480 468 L 495 468 L 497 470 Q 503 472 505 469 Q 511 467 513 470 L 543 470 L 545 472 L 549 471 L 548 470 Q 553 470 555 468 L 553 463 L 553 449 L 554 448 L 553 439 L 552 439 Q 553 441 551 440 Q 548 441 550 443 L 548 441 L 545 444 L 536 445 L 538 445 L 538 446 L 536 445 L 528 445 L 528 448 Q 524 450 525 445 L 528 445 L 519 444 L 517 445 L 520 438 L 519 435 Q 517 430 521 431 L 520 430 L 527 427 Q 530 428 529 425 L 535 426 L 533 427 L 540 429 L 544 428 L 546 429 Q 545 424 548 423 L 549 429 L 548 432 L 549 435 L 552 434 L 553 436 L 554 434 L 554 437 L 555 437 L 555 413 L 554 412 L 555 407 L 554 407 Q 555 409 553 408 L 553 407 L 550 405 L 550 407 L 548 408 L 546 406 L 546 403 L 504 404 L 544 404 L 544 405 L 481 405 L 496 404 L 496 403 L 479 403 L 478 405 Q 475 406 476 403 L 470 403 Z M 550 403 Q 549 405 554 404 Q 555 406 556 404 L 550 403 Z M 529 428 L 529 429 L 536 429 L 529 428 Z M 527 431 L 525 432 L 522 436 L 523 439 L 526 441 L 544 441 Q 547 440 546 434 L 543 431 L 527 431 Z " /><path fill="rgb(253,252,246)" stroke="rgb(253,252,246)" stroke-width="1" opacity="1" d="M 504.5 406 L 520 406.5 L 504.5 407 L 504.5 406 Z " /><path fill="rgb(253,252,246)" stroke="rgb(253,252,246)" stroke-width="1" opacity="1" d="M 573.5 408 L 575 410.5 L 574 414 L 571 412.5 Q 570.5 408.5 573.5 408 Z " /><path fill="rgb(253,252,246)" stroke="rgb(253,252,246)" stroke-width="1" opacity="1" d="M 448.5 409 L 449 411.5 L 448 411.5 L 448.5 409 Z " /><path fill="rgb(253,252,246)" stroke="rgb(253,252,246)" stroke-width="1" opacity="1" d="M 475 410 L 479 410 L 479 411.5 L 476.5 413 L 475 410 Z " /><path fill="rgb(253,252,246)" stroke="rgb(253,252,246)" stroke-width="1" opacity="1" d="M 546 410 Q 549 409 548 412 Q 545 413 546 410 Z " /><path fill="rgb(253,252,246)" stroke="rgb(253,252,246)" stroke-width="1" opacity="1" d="M 524.5 420 Q 528.9 418.5 528 421.5 L 524.5 423 Q 521.5 421.5 524.5 420 Z " /><path fill="rgb(253,252,246)" stroke="rgb(253,252,246)" stroke-width="1" opacity="1" d="M 476.5 425 L 478.5 428 L 480.5 426 Q 485.9 426.6 488 425 L 488.5 427 L 495.5 427 L 497.5 426 L 504 429 L 505 439.5 L 504 442 L 495 445.5 L 498 447.5 L 496.5 448 L 493 446.5 L 493.5 444 L 496 443.5 L 487.5 443 L 487.5 445 L 482.5 445 L 474.5 439 L 472.5 440 Q 469.5 438.5 471 432.5 L 474 434.5 Q 473.3 436.8 475.5 436 L 476 433.5 L 476.5 425 Z M 481 427 L 480 429 L 496 429 L 481 427 Z M 483 431 L 478 435 L 479 440 L 482 441 L 499 441 L 501 440 Q 503 439 502 435 L 498 431 L 483 431 Z " /><path fill="rgb(253,252,246)" stroke="rgb(253,252,246)" stroke-width="1" opacity="1" d="M 540 425 L 543 425.5 L 540 427 L 540 425 Z " /><path fill="rgb(253,252,246)" stroke="rgb(253,252,246)" stroke-width="1" opacity="1" d="M 510 432 L 513 433.5 Q 513.8 435.8 511.5 435 L 510 432 Z " /><path fill="rgb(253,252,246)" stroke="rgb(253,252,246)" stroke-width="1" opacity="1" d="M 549.5 444 L 550 448 Q 547 449.3 548 445.5 L 549.5 444 Z " /><path fill="rgb(253,252,246)" stroke="rgb(253,252,246)" stroke-width="1" opacity="1" d="M 474.5 445 L 478 447.5 L 473 448 L 474.5 445 Z " /><path fill="rgb(253,252,246)" stroke="rgb(253,252,246)" stroke-width="1" opacity="1" d="M 539.5 445 L 543 445.5 L 539.5 446 L 539.5 445 Z " /><path fill="rgb(253,252,246)" stroke="rgb(253,252,246)" stroke-width="1" opacity="1" d="M 482.5 446 L 485 447.5 L 483.5 448 L 482.5 446 Z " /><path fill="rgb(253,252,246)" stroke="rgb(253,252,246)" stroke-width="1" opacity="1" d="M 451.5 466 L 452 469.5 L 449 471 L 451.5 466 Z " /><path fill="rgb(253,252,246)" stroke="rgb(253,252,246)" stroke-width="1" opacity="1" d="M 572.5 466 L 574 471.5 L 572 470.5 L 571 467.5 L 572.5 466 Z " /><path fill="rgb(253,252,246)" stroke="rgb(253,252,246)" stroke-width="1" opacity="1" d="M 477.5 488 Q 481.3 487 480 490 L 476 489.5 L 477.5 488 Z " /><path fill="rgb(253,252,246)" stroke="rgb(253,252,246)" stroke-width="1" opacity="1" d="M 464 491 L 468 492.5 L 465.5 494 L 464 491 Z " /><path fill="rgb(253,252,246)" stroke="rgb(253,252,246)" stroke-width="1" opacity="1" d="M 481.5 492 L 495 492.5 L 481.5 493 L 481.5 492 Z " /><path fill="rgb(253,252,246)" stroke="rgb(253,252,246)" stroke-width="1" opacity="1" d="M 513 492 L 542.5 492 L 543 494 L 513.5 494 L 513 492 Z " /><path fill="rgb(253,252,246)" stroke="rgb(253,252,246)" stroke-width="1" opacity="1" d="M 1023.5 536 L 1024 558.5 L 1023 558.5 L 1023.5 536 Z " /><path fill="rgb(254,254,254)" stroke="rgb(254,254,254)" stroke-width="1" opacity="1" d="M 0 0 L 4 0 L 4 8 L 0 8 L 0 0 Z " /><path fill="rgb(254,254,254)" stroke="rgb(254,254,254)" stroke-width="1" opacity="1" d="M 1020 0 L 1024 0.5 L 1024 535.5 L 1022.5 544 L 1021 535.5 L 1020 504.5 L 1021 503.5 L 1021 416.5 Q 1018.3 414.7 1020 408.5 L 1021 407.5 L 1021 344.5 Q 1018.3 342.8 1020 336.5 Q 1022.8 334.7 1021 328.5 L 1020 327.5 L 1020 312.5 L 1021 311.5 L 1021 296.5 Q 1018.3 294.8 1020 288.5 Q 1022.8 286.7 1021 280.5 L 1020 279.5 L 1020 256.5 L 1021 255.5 L 1021 240.5 L 1020 239.5 L 1020 208.5 L 1021 207.5 L 1021 192.5 L 1020 191.5 L 1020 136.5 Q 1022.8 134.8 1021 128.5 L 1020 127.5 L 1020 104.5 Q 1022.8 102.8 1021 96.5 Q 1018.3 94.8 1020 88.5 L 1021 87.5 L 1021 48.5 Q 1018.3 46.8 1020 40.5 L 1021 39.5 L 1021 16 L 1019 15.5 L 1019 8.5 L 1020 7.5 L 1020 0 Z " /><path fill="rgb(254,254,254)" stroke="rgb(254,254,254)" stroke-width="1" opacity="1" d="M 544.5 63 L 547 63.5 L 544 64.5 L 544.5 66 Q 542.3 66.8 543 64.5 L 544.5 63 Z " /><path fill="rgb(254,254,254)" stroke="rgb(254,254,254)" stroke-width="1" opacity="1" d="M 472.5 64 Q 474.8 63.3 474 65.5 L 472.5 64 Z " /><path fill="rgb(254,254,254)" stroke="rgb(254,254,254)" stroke-width="1" opacity="1" d="M 480 64 Q 483 63 482 66 Q 479 67 480 64 Z " /><path fill="rgb(254,254,254)" stroke="rgb(254,254,254)" stroke-width="1" opacity="1" d="M 548.5 64 L 550 64.5 L 546.5 66 L 546.5 65 L 548.5 64 Z " /><path fill="rgb(254,254,254)" stroke="rgb(254,254,254)" stroke-width="1" opacity="1" d="M 466.5 65 L 471 68.5 L 465.5 70 L 464 66 L 466.5 65 Z " /><path fill="rgb(254,254,254)" stroke="rgb(254,254,254)" stroke-width="1" opacity="1" d="M 488.5 67 Q 494.8 65.3 496.5 68 L 544 68 Q 542.6 71.7 548.5 70 L 548.5 71 L 545 71.5 L 547.5 73 L 549.5 72 L 550.5 74 L 548.5 73 L 546.5 74 L 544 72.5 L 545 74.5 L 543.5 74 Q 538 75.5 536.5 73 L 533.5 74 L 529.5 72 L 527.5 74 L 486.5 74 L 484.5 74 L 475.5 76 L 472.5 75 L 472.5 77 L 464 80 L 459 90 Q 456.3 91.1 457 88.5 L 460 84.5 L 458.5 84 L 457 84.5 L 456 80 L 460 80 L 460 72 L 462.5 72 L 468 75 Q 467 78 470 77 L 469 74.5 L 471 73.5 L 468 73 Q 466.3 68.9 470.5 70 L 470.5 72 Q 472.8 71.3 472 73.5 L 474.5 74 L 480 71.5 L 479.5 68 L 487.5 68 L 488.5 67 Z M 492 71 L 492 72 L 495 72 L 492 71 Z M 483 72 L 483 73 L 485 73 L 483 72 Z M 539 72 L 539 73 L 541 73 L 539 72 Z M 464 76 Q 463 79 466 78 Q 467 75 464 76 Z " /><path fill="rgb(254,254,254)" stroke="rgb(254,254,254)" stroke-width="1" opacity="1" d="M 557.5 67 Q 560.8 65.9 560 68.5 L 552.5 73 L 553 71.5 Q 553.8 69.3 551.5 70 L 551.5 69 L 557.5 67 Z " /><path fill="rgb(254,254,254)" stroke="rgb(254,254,254)" stroke-width="1" opacity="1" d="M 473.5 68 L 478 68.5 L 472.5 70 L 473.5 68 Z " /><path fill="rgb(254,254,254)" stroke="rgb(254,254,254)" stroke-width="1" opacity="1" d="M 0 72 L 8 72 L 8 88 L 0 88 L 0 72 Z " /><path fill="rgb(254,254,254)" stroke="rgb(254,254,254)" stroke-width="1" opacity="1" d="M 560 72 L 572 72 L 572 80 L 574.5 80 Q 575.8 77.8 577 80.5 L 575.5 84 Q 572.9 83.2 574 86.5 L 573 88.5 L 576 94.5 L 576 100 Q 572.7 101.3 574 96.5 L 572 97.5 L 572 103.5 Q 575 106.8 574 113 L 571 113.5 L 574 114.5 L 570 117.5 L 570.5 119 Q 567.9 119.8 569 116.5 L 570 114.5 L 567 111.5 L 567 100.5 L 568 96 Q 571.7 97.3 570 91.5 L 567.5 86 L 566 86.5 L 566 84.5 L 566 82 Q 569 83 568 80 Q 562.8 77.9 564 82.5 L 563 84.5 L 563.5 86 L 561 82.5 L 562.5 80 Q 557.9 81.2 560 76 L 557 76 Q 558.3 79.3 553.5 78 L 553.5 77 L 556 75.5 L 556 74 L 560 74 L 560 72 Z M 570 80 L 570 83 L 572 82 Q 573 79 570 80 Z M 572 85 L 570 88 L 572 87 L 572 85 Z M 571 104 L 570 112 L 572 111 L 571 104 Z " /><path fill="rgb(254,254,254)" stroke="rgb(254,254,254)" stroke-width="1" opacity="1" d="M 448.5 80 L 450 84 Q 446.2 85.2 448.5 80 Z " /><path fill="rgb(254,254,254)" stroke="rgb(254,254,254)" stroke-width="1" opacity="1" d="M 451 80 Q 455.1 78.3 454 82.5 Q 456.8 84.2 456 89.5 Q 453.3 90.3 454 94.5 L 455.5 96 L 458 94.5 Q 454.5 96 457 97.5 L 455.5 100 L 454 100.5 L 454 110.5 L 456 114.5 L 455.5 117 L 454 117.5 L 454.5 119 L 445.5 121 L 445.5 120 L 447 119.5 L 444 119 L 443.5 122 L 440 121 L 436.5 126 L 432.5 123 L 431 129.5 Q 435 131.5 431 133.5 Q 431.8 135.8 429.5 135 L 427.5 136 Q 422.8 134.2 423.5 127 L 421.5 128 Q 418.3 126.1 420 120 L 430.5 120 Q 431.6 122.8 435 122 Q 433.8 119 437.5 120 L 436 117.5 Q 435.1 114.5 439.5 116 L 444.5 115 L 449.5 112 L 452 113 L 452 99.5 L 451 97.5 L 451.5 96 Q 449.3 95.3 450 97.5 L 448 96.5 Q 447.3 93.9 450 95 L 450 91.5 L 451.5 86 L 452 88 Q 454.7 89.1 454 86.5 Q 450.4 84.6 451 80 Z M 452 116 L 449 117 Q 448 120 452 119 L 453 117 L 452 116 Z M 425 128 L 425 130 L 430 131 L 430 128 L 425 128 Z " /><path fill="rgb(254,254,254)" stroke="rgb(254,254,254)" stroke-width="1" opacity="1" d="M 558.5 80 L 559.5 82 L 558.5 80 Z " /><path fill="rgb(254,254,254)" stroke="rgb(254,254,254)" stroke-width="1" opacity="1" d="M 564.5 87 L 566 89.5 L 565 89.5 L 564.5 87 Z " /><path fill="rgb(254,254,254)" stroke="rgb(254,254,254)" stroke-width="1" opacity="1" d="M 484.5 89 L 495.5 89 L 496.5 90 L 511.5 91 Q 513.3 88.3 519.5 90 L 520.5 91 L 528 91 L 528.5 89 L 538.5 89 L 538.5 90 L 535 90.5 L 538 91.5 L 534 92.5 L 537.5 94 L 538.5 93 L 545 93 L 545.5 91 Q 549.5 92.5 548 99.5 Q 545.3 100.2 546 104.5 L 548 103.5 L 548.5 101 L 552 102.5 L 553 105.5 L 550 104.5 L 553 111.5 L 548.5 108 Q 546.3 108.8 547 106.5 L 541.5 99 Q 539.8 101.8 538 97.5 Q 538.8 95.3 536.5 96 L 535 96.5 L 536 94 L 528.5 94 L 527.5 93 L 496.5 93 L 488 95 L 482.5 102 L 479 104.5 L 476.5 109 L 474.5 110 L 473.5 108 L 472.5 110 L 471 103.5 L 473.5 100 Q 475.8 100.8 475 98.5 L 475.5 96 Q 477.8 96.8 477 94.5 L 477.5 92 Q 479.8 91.3 479 93.5 L 478 96 L 480.5 97 L 482 96.5 L 482.5 101 Q 486 99.7 485 95 L 480 95 L 480 93 L 493 92.5 L 480 91.5 L 485 90.5 L 484.5 89 Z M 494 90 L 494 91 L 496 91 L 494 90 Z M 546 93 L 545 95 L 540 95 L 539 97 L 542 98 L 544 98 Q 546 99 545 97 Q 549 95 546 93 Z M 473 103 L 472 105 L 477 107 L 477 105 L 475 103 L 473 103 Z " /><path fill="rgb(254,254,254)" stroke="rgb(254,254,254)" stroke-width="1" opacity="1" d="M 575.5 106 L 576 110.5 L 575 110.5 L 575.5 106 Z " /><path fill="rgb(254,254,254)" stroke="rgb(254,254,254)" stroke-width="1" opacity="1" d="M 456.5 107 L 457 110.5 L 456 110.5 L 456.5 107 Z " /><path fill="rgb(254,254,254)" stroke="rgb(254,254,254)" stroke-width="1" opacity="1" d="M 512.5 108 Q 518.5 107 520.5 110 L 523.5 109 L 527 110.5 L 522.5 111 L 521 110.5 L 520.5 112 L 511.5 112 L 507.5 111 L 506.5 112 L 498.5 112 L 497.5 111 L 495 112.5 L 497 109 L 511.5 109 L 512.5 108 Z M 501 110 L 501 111 L 503 111 L 501 110 Z M 513 110 L 513 111 L 520 111 L 513 110 Z " /><path fill="rgb(254,254,254)" stroke="rgb(254,254,254)" stroke-width="1" opacity="1" d="M 0 112 L 8 112 L 8 128 L 0 128 L 0 112 Z " /><path fill="rgb(254,254,254)" stroke="rgb(254,254,254)" stroke-width="1" opacity="1" d="M 432 112 Q 435 111 434 114 Q 431 115 432 112 Z " /><path fill="rgb(254,254,254)" stroke="rgb(254,254,254)" stroke-width="1" opacity="1" d="M 473.5 112 L 474.5 114 Q 471.7 114.7 473.5 112 Z " /><path fill="rgb(254,254,254)" stroke="rgb(254,254,254)" stroke-width="1" opacity="1" d="M 524 112 L 528 112 L 528 113.5 L 530 113.5 L 528.5 116 L 531.5 114 L 529.5 117 Q 525.3 115.9 527 120 L 524 120 L 523.5 117 L 512.5 117 L 511.5 118 L 497.5 118 L 496.5 119 L 496 116 L 527 115.5 L 524 115 L 524 112 Z " /><path fill="rgb(254,254,254)" stroke="rgb(254,254,254)" stroke-width="1" opacity="1" d="M 548.5 112 L 549 114 L 551 114.5 L 550 116.5 L 552 119.5 L 551 122.5 L 552 127.5 L 550.5 130 L 553 130.5 Q 550.8 131.8 553.5 133 L 555 132.5 L 555.5 136 L 556 134 L 559 135.5 L 558.5 137 L 564.5 138 L 563.5 136 L 560 135.5 L 563.5 134 L 569 135.5 L 566 136.5 Q 566.8 138.8 570.5 138 L 570.5 136 Q 577.1 136.9 580 141.5 L 578 142 L 579 146.5 L 583 152.5 L 583 198.5 L 582 201.5 L 583 206.5 L 582 208.5 L 583 209.5 L 583 222.5 L 582 223.5 L 582 255 L 584 255.5 L 584 273 L 582 273.5 L 582 304.5 L 583 304.5 L 583.5 303 L 584 337 L 582 337.5 L 582 351 L 584 351.5 L 584 367.5 Q 581.5 369 583 374.5 L 581.5 376 L 580 375.5 L 581 377.5 L 580 380.5 L 578.5 383 L 578 381.5 L 579 378.5 L 576 376.5 L 577.5 376 L 579 376.5 L 578 369.5 L 579 369.5 L 579.5 373 L 582 372 Q 583 367.8 580 366.5 L 579.5 223 L 578.5 225 L 578 208 L 580 207.5 L 580 196.5 L 581 193.5 L 581 191.5 L 580 168.5 Q 582.8 166.8 581 160.5 Q 579.8 157.8 578.5 160 Q 575.9 160.8 577 157.5 L 576.5 156 L 578 156.5 L 579 148.5 L 576 147.5 L 576 145 L 569.5 145 Q 567.5 141.5 561.5 142 Q 559.7 145.8 558 142.5 L 560 141.5 L 556 139.5 L 555.5 138 L 554.5 140 L 554 138.5 L 555 136 L 553 136 L 553 133 Q 550.3 134.1 551 131.5 L 550 131.5 Q 551.7 137.3 548 136 L 549 132.5 L 549 130.5 L 550 128.5 L 548 121.5 L 551 119.5 L 548.5 115 L 547.5 117 L 547 115.5 L 548.5 112 Z M 551 124 L 550 127 L 551 127 L 551 124 Z M 560 138 L 558 140 L 562 141 L 560 138 Z M 569 139 L 569 140 L 572 140 L 569 139 Z M 567 140 L 568 142 Q 569 139 567 140 Z M 581 152 L 580 159 L 581 159 L 581 152 Z " /><path fill="rgb(254,254,254)" stroke="rgb(254,254,254)" stroke-width="1" opacity="1" d="M 493.5 113 L 496 114.5 L 494.5 115 L 493.5 113 Z " /><path fill="rgb(254,254,254)" stroke="rgb(254,254,254)" stroke-width="1" opacity="1" d="M 580 115 Q 584.3 116.9 592 116 Q 589.9 122.4 597 120 L 597 128 Q 592.9 126.3 594 130.5 L 595 133 L 597.5 132 L 598 134.5 L 597.5 137 L 591 132.5 L 588 125 L 585 123.5 L 587 123.5 Q 587.8 121.3 585.5 122 L 583.5 121 L 582 121.5 L 582.5 120 Q 580.3 119.3 581 121.5 L 580 121.5 L 581 119.5 L 579.5 119 L 577.5 121 Q 575.8 117.9 574 119.5 L 574.5 117 L 578.5 118 L 580 115 Z M 583 118 L 585 120 L 587 120 Q 586 117 583 118 Z M 591 120 L 592 122 Q 593 119 591 120 Z " /><path fill="rgb(254,254,254)" stroke="rgb(254,254,254)" stroke-width="1" opacity="1" d="M 472.5 116 L 475 117 L 475 127.5 L 473.5 129 L 472 126.5 L 473 121.5 L 472 118.5 L 472.5 116 Z " /><path fill="rgb(254,254,254)" stroke="rgb(254,254,254)" stroke-width="1" opacity="1" d="M 494.5 116 L 495 118 L 491 117.5 L 494.5 116 Z " /><path fill="rgb(254,254,254)" stroke="rgb(254,254,254)" stroke-width="1" opacity="1" d="M 416.5 128 L 417.5 132 L 418.5 128 L 419 131.5 L 416 133 L 416.5 128 Z " /><path fill="rgb(254,254,254)" stroke="rgb(254,254,254)" stroke-width="1" opacity="1" d="M 603 128 Q 607.9 126.2 606 132.5 L 602 138.5 L 601 144 L 598 143.5 Q 600.5 142 597 140.5 L 600 137.5 Q 603.9 134.5 603 128 Z " /><path fill="rgb(254,254,254)" stroke="rgb(254,254,254)" stroke-width="1" opacity="1" d="M 472.5 130 L 474.5 134 L 475.5 131 L 478.5 136 L 480.5 135 L 480.5 136 L 477 137 L 476.5 135 L 471 136 L 472 133.5 L 470.5 133 L 467.5 137 L 474 138 L 473 142 L 468.5 142 Q 469.5 145 464.5 144 L 459.5 142 L 455.5 144 L 452 143 L 452 152 L 448 152 Q 449 155 446 154 Q 447 151 444 152 L 444 159.5 L 445 160.5 L 443.5 160 L 442 160.5 L 442 175.5 L 441 176.5 L 441 191.5 L 442 192.5 L 442 273 L 444 273.5 L 444 350.5 L 441 353.5 L 441 368.5 L 445 375.5 L 444 378.5 L 444.5 380 L 447.5 379 L 448.5 380 L 456 380 L 456.5 384 L 572.5 384 L 574.5 383 L 578 384.5 L 575.5 385 L 568.5 386 L 565.5 385 L 563.5 385 L 560 386.5 L 559.5 389 L 529.5 389 L 528.5 388 L 504.5 388 Q 502.7 390.8 496.5 389 Q 494.8 386.3 488.5 388 Q 486.7 390.8 480.5 389 L 479.5 388 L 464 387.5 L 480 386.5 L 464.5 386 L 463.5 385 L 452.5 384 L 450.5 384 L 447.5 386 L 448 382.5 L 447.5 380 L 446.5 382 L 443 379.5 L 442 377.5 Q 444.5 376 441 374.5 L 440 353.5 L 441 352.5 L 441 192.5 L 440 191.5 L 440 176.5 L 441 175.5 L 442 154.5 L 441 150 Q 446.3 151.8 444 144.5 L 444 142.5 L 444.5 141 Q 445.8 143.3 447 140.5 L 446 139.5 L 449.5 136 L 452.5 135 L 452.5 136 L 450 137.5 L 456 138.5 L 453 139.5 L 456 140 L 456.5 142 Q 458.2 138.5 464 140 Q 465.5 136.3 462.5 137 L 459.5 139 L 458 136 L 456 135.5 L 463.5 134 L 465.5 134 L 467.5 135 L 468 133 L 472 132 L 472.5 130 Z M 449 138 Q 446 139 448 141 L 445 145 L 448 146 L 449 144 Q 448 141 452 142 L 452 139 L 449 138 Z M 481 385 L 481 386 L 488 386 L 481 385 Z M 497 385 L 497 386 L 504 386 L 497 385 Z M 536 385 L 536 387 L 529 388 L 544 388 L 544 385 L 536 385 Z M 489 386 L 489 387 L 496 387 L 489 386 Z M 513 386 L 513 387 L 527 387 L 513 386 Z " /><path fill="rgb(254,254,254)" stroke="rgb(254,254,254)" stroke-width="1" opacity="1" d="M 420.5 134 L 426.5 138 L 428 137.5 L 426.5 141 L 423.5 137 L 422 143.5 L 424.5 147 L 425 144.5 L 424 141.5 L 425 141.5 L 427 144.5 L 426 145.5 L 426 155.5 L 427 159.5 L 426 160.5 L 426 343.5 Q 423.3 345.3 425 351.5 L 426 352.5 L 426 372.5 L 425 375.5 L 427 379.5 L 425 385.5 L 426 389.5 L 425 389.5 L 423 385.5 L 425 381.5 L 422.5 375 L 420 376 L 419.5 371 L 418.5 373 L 416 368 L 420 367.5 L 420 272 L 416 272 L 416 264 Q 419.5 265.1 418 257.5 L 419 257.5 L 419.5 264 L 420 256 L 416 256 L 416 248 L 420 247.5 L 420 160 Q 416.7 161.3 418 156.5 L 417 156.5 L 416.5 160 L 415 153.5 L 416 150 Q 419 148.8 418 152.5 L 420.5 156 L 421 146.5 L 420 146.5 L 419.5 150 Q 419.8 144.8 417 142.5 L 419.5 137 L 421.5 140 L 422 137.5 L 419 135.5 L 420.5 134 Z M 425 149 L 424 152 L 425 152 L 425 149 Z M 423 157 L 425 161 L 426 158 L 423 157 Z M 425 200 L 424 224 L 425 224 L 425 200 Z M 425 232 L 424 240 L 425 240 L 425 232 Z M 425 272 L 424 288 L 425 288 L 425 272 Z " /><path fill="rgb(254,254,254)" stroke="rgb(254,254,254)" stroke-width="1" opacity="1" d="M 482.5 134 Q 485.5 134.5 485 138.5 L 483 137.5 L 482.5 134 Z " /><path fill="rgb(254,254,254)" stroke="rgb(254,254,254)" stroke-width="1" opacity="1" d="M 540.5 134 L 542.5 135 L 546 134.5 Q 544.6 138.6 539 138.5 L 541 139.5 L 535 140 L 534.5 138 L 534 140 L 528 139.5 L 528.5 138 L 526.5 137 L 497.5 137 L 497.5 138 L 511.5 138 L 512 139.5 L 513.5 141 L 530 141.5 L 512 142 L 511.5 140 L 496 140 L 497 143.5 Q 495.5 146.5 494 143.5 L 495 140.5 L 492.5 137 L 490.5 140 L 488.5 141 L 488 136 L 535.5 136 L 539.5 137 L 540.5 134 Z " /><path fill="rgb(254,254,254)" stroke="rgb(254,254,254)" stroke-width="1" opacity="1" d="M 0 136 L 7.5 136 L 8 136.5 L 8 168 L 0.5 168 L 0 167.5 L 0 136 Z " /><path fill="rgb(254,254,254)" stroke="rgb(254,254,254)" stroke-width="1" opacity="1" d="M 549.5 138 Q 553.9 136.5 553 139.5 L 547.5 144 L 545.5 144 L 548 140.5 L 549.5 138 Z " /><path fill="rgb(254,254,254)" stroke="rgb(254,254,254)" stroke-width="1" opacity="1" d="M 478.5 141 L 483.5 142 L 485.5 141 L 487 143.5 Q 486 146 481.5 145 L 477 144 L 478.5 141 Z " /><path fill="rgb(254,254,254)" stroke="rgb(254,254,254)" stroke-width="1" opacity="1" d="M 492.5 142 L 493 144 L 491 143.5 L 492.5 142 Z " /><path fill="rgb(254,254,254)" stroke="rgb(254,254,254)" stroke-width="1" opacity="1" d="M 532 142 Q 535 141 534 144 Q 531 145 532 142 Z " /><path fill="rgb(254,254,254)" stroke="rgb(254,254,254)" stroke-width="1" opacity="1" d="M 536 142 L 541 142 L 541 143.5 L 538.5 145 L 536 144 L 536 142 Z " /><path fill="rgb(254,254,254)" stroke="rgb(254,254,254)" stroke-width="1" opacity="1" d="M 513.5 143 L 527 143.5 L 513.5 144 L 513.5 143 Z " /><path fill="rgb(254,254,254)" stroke="rgb(254,254,254)" stroke-width="1" opacity="1" d="M 416.5 145 L 417 147.5 L 416 147.5 L 416.5 145 Z " /><path fill="rgb(254,254,254)" stroke="rgb(254,254,254)" stroke-width="1" opacity="1" d="M 601.5 145 L 602 154 Q 597.5 152.3 599 157.5 L 598 157.5 L 599 150.5 L 598.5 149 L 600 149.5 L 601.5 145 Z " /><path fill="rgb(254,254,254)" stroke="rgb(254,254,254)" stroke-width="1" opacity="1" d="M 446.5 156 L 448 160 Q 444.2 161.2 446.5 156 Z " /><path fill="rgb(254,254,254)" stroke="rgb(254,254,254)" stroke-width="1" opacity="1" d="M 598.5 159 L 599 175.5 L 600 176.5 L 600 304.5 Q 597.5 306 599 311.5 L 600 312.5 L 600 369.5 L 602 375.5 L 600 379.5 L 601.5 379 L 605.5 380 L 605.5 378 Q 609.3 377 608 380 L 605 381.5 L 606.5 385 L 608 385.5 L 608 392 L 600 391.5 Q 603.3 390 602 385 L 600 385 L 600 389 Q 597 387.8 598 391.5 Q 596.3 389.9 594.5 393 L 592 392.5 L 595 391.5 L 593 390.5 L 594.5 390 L 595.5 391 L 599 387.5 L 598 383.5 L 599.5 384 Q 603.3 384.8 604 382.5 L 603 380 L 597 382 Q 596.3 378.6 599 377.5 L 598 376.5 L 598 360.5 L 599 359.5 L 599 336.5 L 598 335.5 L 598 320.5 Q 600.7 318.7 599 312.5 L 598 311.5 L 598 296.5 Q 600.7 294.8 599 288.5 Q 596.3 286.7 598 280.5 L 599 279.5 L 599 240.5 L 598 239.5 L 598 224.5 Q 600.7 222.7 599 216.5 Q 596.3 214.7 598 208.5 Q 600.7 206.8 599 200.5 Q 596.3 198.8 598 192.5 L 599 191.5 L 599 176.5 L 598 175.5 L 598.5 159 Z M 599 379 Q 597 382 600 381 L 599 379 Z " /><path fill="rgb(254,254,254)" stroke="rgb(254,254,254)" stroke-width="1" opacity="1" d="M 0 176 L 8 176 L 8 184 L 0 184 L 0 176 Z " /><path fill="rgb(254,254,254)" stroke="rgb(254,254,254)" stroke-width="1" opacity="1" d="M 444.5 176 L 445 191.5 L 444 191.5 L 444.5 176 Z " /><path fill="rgb(254,254,254)" stroke="rgb(254,254,254)" stroke-width="1" opacity="1" d="M 605.5 177 L 606 366.5 L 605 366.5 L 605.5 177 Z " /><path fill="rgb(254,254,254)" stroke="rgb(254,254,254)" stroke-width="1" opacity="1" d="M 0 216 L 8 216 L 8 232 L 0 232 L 0 216 Z " /><path fill="rgb(254,254,254)" stroke="rgb(254,254,254)" stroke-width="1" opacity="1" d="M 0 280 L 8 280 L 8 296 L 0 296 L 0 280 Z " /><path fill="rgb(254,254,254)" stroke="rgb(254,254,254)" stroke-width="1" opacity="1" d="M 578.5 289 L 579 302.5 L 578 302.5 L 578.5 289 Z " /><path fill="rgb(254,254,254)" stroke="rgb(254,254,254)" stroke-width="1" opacity="1" d="M 0 328 L 8 328 L 8 336 L 0 336 L 0 328 Z " /><path fill="rgb(254,254,254)" stroke="rgb(254,254,254)" stroke-width="1" opacity="1" d="M 446 336 L 448 336.5 L 448 353 L 446 352.5 L 446 336 Z " /><path fill="rgb(254,254,254)" stroke="rgb(254,254,254)" stroke-width="1" opacity="1" d="M 0 344 L 8 344 L 8 360 L 0 360 L 0 344 Z " /><path fill="rgb(254,254,254)" stroke="rgb(254,254,254)" stroke-width="1" opacity="1" d="M 1016 360 L 1018 360.5 L 1018 368 L 1016 367.5 L 1016 360 Z " /><path fill="rgb(254,254,254)" stroke="rgb(254,254,254)" stroke-width="1" opacity="1" d="M 445.5 368 L 447 374.5 L 445 373.5 L 445.5 368 Z " /><path fill="rgb(254,254,254)" stroke="rgb(254,254,254)" stroke-width="1" opacity="1" d="M 0 376 L 8 376 L 8 384 L 0 384 L 0 376 Z " /><path fill="rgb(254,254,254)" stroke="rgb(254,254,254)" stroke-width="1" opacity="1" d="M 446.5 376 Q 448.8 375.3 448 377.5 L 446.5 376 Z " /><path fill="rgb(254,254,254)" stroke="rgb(254,254,254)" stroke-width="1" opacity="1" d="M 576 379 L 578 379.5 L 576 380.5 L 576 379 Z " /><path fill="rgb(254,254,254)" stroke="rgb(254,254,254)" stroke-width="1" opacity="1" d="M 420 380 Q 424.9 378.4 423 384 Q 418.1 385.6 420 380 Z " /><path fill="rgb(254,254,254)" stroke="rgb(254,254,254)" stroke-width="1" opacity="1" d="M 455.5 386 L 458 387.5 L 454.5 388 L 455.5 386 Z " /><path fill="rgb(254,254,254)" stroke="rgb(254,254,254)" stroke-width="1" opacity="1" d="M 563.5 387 L 568 387.5 L 563.5 388 L 563.5 387 Z " /><path fill="rgb(254,254,254)" stroke="rgb(254,254,254)" stroke-width="1" opacity="1" d="M 427.5 388 L 428 390.5 L 427 390.5 L 427.5 388 Z " /><path fill="rgb(254,254,254)" stroke="rgb(254,254,254)" stroke-width="1" opacity="1" d="M 430.5 390 L 432 394.5 L 431 397 Q 434.8 398.5 434 395.5 L 436 396.5 Q 436.8 398.8 434.5 398 L 434.5 401 L 438.5 400 L 440 400.5 Q 439.3 398.3 441.5 399 L 444 399.5 L 442 402.5 L 447.5 405 L 452.5 404 L 455 408.5 L 453.5 408 L 450 408.5 L 453 410.5 L 454 415.5 L 453 416.5 L 453 465.5 Q 455.8 466.6 455 470 L 453 470 L 453 466 Q 450.3 467.1 451 464.5 L 448 463.5 Q 446.6 454.7 450 455.5 L 450 424.5 L 448 414.5 L 449 414.5 Q 448.2 417.5 452 416 L 452 413 Q 449 414.3 450 410.5 L 448 407 L 440 408 L 440 405 L 432 405 L 432 400 Q 426.8 401.7 428 398 L 431 397.5 L 427 394.5 L 429 393.5 L 428.5 392 Q 431 392.7 430.5 390 Z M 433 398 Q 431 401 434 400 L 433 398 Z M 449 405 L 448 407 L 453 407 L 449 405 Z M 452 417 L 451 424 L 452 424 L 452 417 Z " /><path fill="rgb(254,254,254)" stroke="rgb(254,254,254)" stroke-width="1" opacity="1" d="M 0 392 L 8 392 L 8 400 L 0 400 L 0 392 Z " /><path fill="rgb(254,254,254)" stroke="rgb(254,254,254)" stroke-width="1" opacity="1" d="M 416 392 Q 419 391 418 394 Q 415 395 416 392 Z " /><path fill="rgb(254,254,254)" stroke="rgb(254,254,254)" stroke-width="1" opacity="1" d="M 592.5 394 L 593 396.5 L 591.5 399 L 589 397.5 L 592 395.5 L 592.5 394 Z " /><path fill="rgb(254,254,254)" stroke="rgb(254,254,254)" stroke-width="1" opacity="1" d="M 593 398 L 598 398 L 598 400 L 593 400 L 593 398 Z " /><path fill="rgb(254,254,254)" stroke="rgb(254,254,254)" stroke-width="1" opacity="1" d="M 582 399 L 589 400 L 589 408 L 576 408 Q 577.4 404 570.5 406 L 571.5 404 L 573.5 405 L 577 402.5 L 577 401 L 582 401 L 582 399 Z " /><path fill="rgb(254,254,254)" stroke="rgb(254,254,254)" stroke-width="1" opacity="1" d="M 470.5 403 L 474.5 403 Q 477.1 402.3 476 405 L 470 405 L 470.5 403 Z " /><path fill="rgb(254,254,254)" stroke="rgb(254,254,254)" stroke-width="1" opacity="1" d="M 478 403 L 496 403.5 L 481 404.5 L 543.5 405 L 543.5 404 L 504 403.5 L 545.5 403 L 546 405.5 L 547.5 408 L 550 406.5 L 549.5 405 L 553 406.5 Q 550.8 407.7 553.5 409 L 555 408.5 Q 555.7 411.1 553 410 L 553 412 L 555 412.5 L 555 436.5 L 554 436.5 Q 555.3 432.8 551.5 434 L 550.5 431 L 549.5 433 Q 546.8 431.8 549 430.5 L 548 424 L 553 424 L 553 416.5 L 554 413 Q 550.3 414.4 552 408.5 Q 550.8 405.8 549.5 408 Q 546.9 407.3 548 410 L 546 410 L 545.5 408 L 544 408.5 L 545 405.5 L 544 405.5 L 542.5 408 L 496.5 408 L 495.5 407 L 480 407 Q 481 404 478 405 Q 479.3 408.3 474.5 407 L 474.5 406 L 478 404.5 L 478 403 Z M 505 406 L 505 407 L 520 407 L 505 406 Z " /><path fill="rgb(254,254,254)" stroke="rgb(254,254,254)" stroke-width="1" opacity="1" d="M 569 407 L 575 407.5 L 571 410.5 L 572.5 414 Q 574.8 413.3 574 415.5 L 575 415.5 L 575.5 414 L 576 415.5 Q 574.8 418.3 573.5 416 L 571 416.5 L 571 423.5 Q 573.8 425.3 572 431.5 L 571 432.5 L 571 448 L 574 448 L 574 440.5 L 575 440.5 L 575.5 447 L 576 440 L 584 440 L 584 448 L 576 448 L 576 462.5 L 575 465.5 L 577 472.5 L 575 475.5 Q 578.5 477 576 478.5 Q 576.7 481.1 574 480 L 572.5 476 L 572 488 L 565.5 487 L 563 488 L 564.5 485 L 568 486 Q 569.2 482.3 564 484 L 564 481.5 L 565 481.5 Q 564.3 484.1 567 483 L 566 480.5 L 569 480 L 568.5 478 L 566.5 479 L 568 476.5 L 569 467.5 L 571 465.5 L 571 448.5 L 570 447.5 L 569 432.5 Q 571.8 430.8 570 424.5 Q 567.5 423 569 417.5 Q 571.5 416 570 410.5 L 569 407 Z M 573 466 L 571 468 L 572 471 L 572 473 Q 571 475 574 474 Q 575 469 573 466 Z " /><path fill="rgb(254,254,254)" stroke="rgb(254,254,254)" stroke-width="1" opacity="1" d="M 469 408 Q 472 407 471 410 L 474.5 410 L 478 408 L 478 410 Q 474.2 408.5 475 411.5 L 478 415.5 L 477 415.5 L 474.5 412 Q 469.1 410.1 470 413.5 L 469 413.5 L 470 410.5 L 469 408 Z " /><path fill="rgb(254,254,254)" stroke="rgb(254,254,254)" stroke-width="1" opacity="1" d="M 575.5 409 L 576 412.5 L 575 412.5 L 575.5 409 Z " /><path fill="rgb(254,254,254)" stroke="rgb(254,254,254)" stroke-width="1" opacity="1" d="M 479.5 410 L 480 412.5 L 479 412.5 L 479.5 410 Z " /><path fill="rgb(254,254,254)" stroke="rgb(254,254,254)" stroke-width="1" opacity="1" d="M 496 410 L 527.5 410 L 528 412 L 496.5 412 L 496 410 Z " /><path fill="rgb(254,254,254)" stroke="rgb(254,254,254)" stroke-width="1" opacity="1" d="M 543.5 410 L 549 412 L 548 414.5 L 549 416.5 Q 546.7 417.8 548 422.5 L 546.5 424 L 546 416.5 L 547 414.5 L 546 412 Q 541.5 413.3 543.5 410 Z " /><path fill="rgb(254,254,254)" stroke="rgb(254,254,254)" stroke-width="1" opacity="1" d="M 481 414 L 542.5 414 L 543 416 L 522.5 415 L 517.5 416 L 516.5 415 L 501.5 415 L 496.5 417 L 493.5 415 L 492.5 416 L 482 416.5 L 486 417.5 L 481.5 418 Q 478.8 416.8 481 415.5 L 481 414 Z " /><path fill="rgb(254,254,254)" stroke="rgb(254,254,254)" stroke-width="1" opacity="1" d="M 470.5 415 L 472 417.5 L 472 430.5 Q 469.3 432.3 471 438.5 L 473 441.5 L 471 440.5 L 470.5 439 L 469.5 449 L 469 431 Q 472.5 432.1 471 424.5 L 470 423.5 L 470.5 415 Z " /><path fill="rgb(254,254,254)" stroke="rgb(254,254,254)" stroke-width="1" opacity="1" d="M 0 416 L 8 416 L 8 424 L 0 424 L 0 416 Z " /><path fill="rgb(254,254,254)" stroke="rgb(254,254,254)" stroke-width="1" opacity="1" d="M 476.5 417 L 477 424.5 L 475.5 432 L 474 429.5 L 476.5 417 Z " /><path fill="rgb(254,254,254)" stroke="rgb(254,254,254)" stroke-width="1" opacity="1" d="M 492.5 417 L 495 417.5 L 492.5 418 L 492.5 417 Z " /><path fill="rgb(254,254,254)" stroke="rgb(254,254,254)" stroke-width="1" opacity="1" d="M 520.5 418 L 522 418.5 L 519.5 420 L 520.5 418 Z " /><path fill="rgb(254,254,254)" stroke="rgb(254,254,254)" stroke-width="1" opacity="1" d="M 525.5 419 L 528 419.5 L 525.5 420 L 525.5 419 Z " /><path fill="rgb(254,254,254)" stroke="rgb(254,254,254)" stroke-width="1" opacity="1" d="M 486.5 420 L 495.5 420 L 496 422 Q 488.5 423.2 486.5 420 Z " /><path fill="rgb(254,254,254)" stroke="rgb(254,254,254)" stroke-width="1" opacity="1" d="M 501.5 420 Q 504.8 418.9 504 421.5 L 502.5 421 L 501.5 420 Z " /><path fill="rgb(254,254,254)" stroke="rgb(254,254,254)" stroke-width="1" opacity="1" d="M 520.5 422 L 526.5 423 L 528.5 422 L 526.5 426 L 528.5 425 L 529 427 L 524.5 428 L 521.5 427 L 521.5 428 L 523 428.5 L 520 429 L 519 434.5 L 520 437.5 L 518 437.5 L 519 439.5 L 515.5 440 L 512 439 L 510 435.5 L 514 434.5 L 512 431 L 516 428.5 L 518.5 425 L 521 423.5 L 520.5 422 Z M 521 425 L 521 426 L 523 426 L 521 425 Z M 515 431 L 515 432 L 517 432 L 515 431 Z " /><path fill="rgb(254,254,254)" stroke="rgb(254,254,254)" stroke-width="1" opacity="1" d="M 478 424 L 480.5 425 L 481.5 424 L 504 424 Q 505.5 427.8 502.5 427 L 502.5 428 L 506 430.5 L 504 431 Q 505.1 428.3 502.5 429 L 496.5 426 L 495.5 427 L 488 427 Q 489.1 424.3 486.5 425 Q 485.2 427.3 480.5 426 L 479 427.5 L 481.5 428 L 485.5 427 L 486.5 428 L 496 428.5 L 479.5 429 Q 477 427.8 478 424 Z M 499 425 L 499 426 L 503 426 L 499 425 Z " /><path fill="rgb(254,254,254)" stroke="rgb(254,254,254)" stroke-width="1" opacity="1" d="M 536.5 424 L 540 424 Q 538.5 427.8 541.5 427 L 544 425.5 L 543 429 L 536.5 428 Q 534.7 430.8 528.5 429 L 528.5 428 L 536 427.5 L 533 426.5 L 536.5 424 Z " /><path fill="rgb(254,254,254)" stroke="rgb(254,254,254)" stroke-width="1" opacity="1" d="M 574 424 L 580 424 L 580 432 L 574 432 L 574 424 Z " /><path fill="rgb(254,254,254)" stroke="rgb(254,254,254)" stroke-width="1" opacity="1" d="M 545.5 425 L 546 429 L 544 428.5 L 545.5 425 Z " /><path fill="rgb(254,254,254)" stroke="rgb(254,254,254)" stroke-width="1" opacity="1" d="M 472.5 432 L 476 433.5 L 475.5 436 Q 473.3 436.8 474 434.5 L 472.5 432 Z " /><path fill="rgb(254,254,254)" stroke="rgb(254,254,254)" stroke-width="1" opacity="1" d="M 0 440 L 8 440 L 8 456 L 0 456 L 0 440 Z " /><path fill="rgb(254,254,254)" stroke="rgb(254,254,254)" stroke-width="1" opacity="1" d="M 552.5 440 Q 554.8 439.3 554 441.5 L 552 441.5 L 551 443.5 L 552 446.5 L 549.5 449 L 550 447.5 L 549.5 444 L 548 444.5 L 547.5 442 L 546 445.5 L 547.5 448 L 540.5 447 L 536.5 448 Q 535 445.5 529.5 447 L 527 448.5 L 528 446 L 539.5 447 L 543 445.5 L 542.5 444 L 543.5 445 L 547.5 441 L 550 442.5 Q 549.3 440.3 551.5 441 L 552.5 440 Z " /><path fill="rgb(254,254,254)" stroke="rgb(254,254,254)" stroke-width="1" opacity="1" d="M 476.5 441 L 484.5 446 L 488 444.5 L 487.5 443 L 491.5 444 L 495.5 443 L 495.5 444 L 493 444.5 Q 495.3 445.8 492.5 447 L 485.5 448 L 483.5 447 L 479.5 449 L 476.5 446 L 474.5 445 L 473 447.5 L 473.5 449 L 471 447.5 L 471.5 444 L 473.5 444 L 477.5 445 L 478 443.5 L 476.5 441 Z M 481 444 Q 479 447 482 446 L 481 444 Z " /><path fill="rgb(254,254,254)" stroke="rgb(254,254,254)" stroke-width="1" opacity="1" d="M 508.5 441 L 510 443.5 L 508 444.5 L 508.5 441 Z " /><path fill="rgb(254,254,254)" stroke="rgb(254,254,254)" stroke-width="1" opacity="1" d="M 511.5 441 L 512 443.5 L 511 443.5 L 511.5 441 Z " /><path fill="rgb(254,254,254)" stroke="rgb(254,254,254)" stroke-width="1" opacity="1" d="M 502.5 442 L 504 444.5 L 502.5 444 L 499 444.5 Q 500.2 447 504 446 Q 505.3 449.3 500.5 448 L 498 447.5 L 498.5 446 L 496.5 447 L 495.5 445 L 502.5 442 Z " /><path fill="rgb(254,254,254)" stroke="rgb(254,254,254)" stroke-width="1" opacity="1" d="M 516.5 443 L 517.5 445 L 522.5 444 L 524.5 445 L 527.5 444 L 527.5 445 L 522.5 446 L 520.5 445 Q 517.7 448.8 512 448 Q 510.8 445 514.5 446 L 514.5 444 L 516 444.5 L 516.5 443 Z " /><path fill="rgb(254,254,254)" stroke="rgb(254,254,254)" stroke-width="1" opacity="1" d="M 537.5 444 L 538.5 446 L 537.5 444 Z " /><path fill="rgb(254,254,254)" stroke="rgb(254,254,254)" stroke-width="1" opacity="1" d="M 553.5 447 L 553 448.5 L 553 462.5 L 554 463.5 L 552 464.5 L 552 466.5 Q 551.3 468.8 553.5 468 L 555 467.5 Q 553.4 470.4 548 469.5 L 548.5 471 L 544.5 472 L 542.5 470 L 512.5 470 Q 510.8 467.2 504.5 469 L 495.5 471 Q 484 469.5 476.5 472 L 476.5 471 Q 480.9 472.5 480 469.5 L 481.5 470 L 496 469.5 L 494.5 468 L 480 467.5 L 495.5 467 L 496.5 468 L 544 468 L 543.5 466 L 496.5 466 L 496 463 L 542.5 463 L 544 464.5 Q 543.3 466.8 545.5 466 L 548 467 Q 545.9 460.6 547 449.5 L 548 449.5 L 548 462.5 L 549.5 464 L 552 462.5 L 552 448.5 L 553.5 447 Z " /><path fill="rgb(254,254,254)" stroke="rgb(254,254,254)" stroke-width="1" opacity="1" d="M 472.5 464 L 478 466.5 L 475.5 467 Q 474 463.5 472.5 466 L 469.5 467 L 470.5 465 L 472.5 464 Z " /><path fill="rgb(254,254,254)" stroke="rgb(254,254,254)" stroke-width="1" opacity="1" d="M 448.5 467 Q 450.8 466.3 450 468.5 L 449 470.5 L 451 473.5 L 448.5 474 Q 446 473 447 468.5 L 448.5 467 Z " /><path fill="rgb(254,254,254)" stroke="rgb(254,254,254)" stroke-width="1" opacity="1" d="M 471 467 L 477.5 468 L 479 469.5 L 473 471 L 471 467 Z " /><path fill="rgb(254,254,254)" stroke="rgb(254,254,254)" stroke-width="1" opacity="1" d="M 454.5 471 Q 457 472 456 476.5 L 454.5 480 L 454 476 Q 450.3 477.2 452 472 L 454.5 471 Z " /><path fill="rgb(254,254,254)" stroke="rgb(254,254,254)" stroke-width="1" opacity="1" d="M 450.5 477 L 451 480 Q 448.3 481.1 449 478.5 L 450.5 477 Z " /><path fill="rgb(254,254,254)" stroke="rgb(254,254,254)" stroke-width="1" opacity="1" d="M 458.5 479 L 459 480.5 Q 456.8 481.8 459.5 483 L 462 484.5 L 461 486.5 L 462.5 487 L 464.5 486 L 464.5 487 L 463 487.5 L 465.5 488 L 466.5 485 Q 468.8 484.3 468 486.5 L 467.5 488 L 470.5 486 L 470 487.5 Q 469.3 490.1 472 489 L 472 491.5 L 471 494 L 467 493.5 L 467 491.5 L 466.5 490 L 464 491 Q 466.4 498.1 460 496 L 460 488.5 L 459 487.5 L 461 484.5 L 458 484 Q 459.3 488.1 456 487 Q 455.3 481.7 458.5 479 Z " /><path fill="rgb(254,254,254)" stroke="rgb(254,254,254)" stroke-width="1" opacity="1" d="M 562.5 482 L 563 484 L 560.5 485 L 562.5 482 Z " /><path fill="rgb(254,254,254)" stroke="rgb(254,254,254)" stroke-width="1" opacity="1" d="M 556.5 485 Q 559.8 483.9 559 486.5 L 560 492 L 556 489.5 L 557 487.5 L 555.5 488 Q 552.2 489.1 553 486.5 Q 554.8 488.1 556.5 485 Z " /><path fill="rgb(254,254,254)" stroke="rgb(254,254,254)" stroke-width="1" opacity="1" d="M 472 486 L 478 486.5 L 472 488 L 472 486 Z " /><path fill="rgb(254,254,254)" stroke="rgb(254,254,254)" stroke-width="1" opacity="1" d="M 488.5 486 L 497 486.5 L 488.5 487 L 488.5 486 Z " /><path fill="rgb(254,254,254)" stroke="rgb(254,254,254)" stroke-width="1" opacity="1" d="M 520.5 487 L 528 487.5 L 520.5 488 L 520.5 487 Z " /><path fill="rgb(254,254,254)" stroke="rgb(254,254,254)" stroke-width="1" opacity="1" d="M 549.5 487 L 552 487.5 L 547.5 490 L 547 488 L 549.5 487 Z " /><path fill="rgb(254,254,254)" stroke="rgb(254,254,254)" stroke-width="1" opacity="1" d="M 480.5 488 L 481 491 L 511 490 L 510.5 492 L 480 492 L 480.5 488 Z " /><path fill="rgb(254,254,254)" stroke="rgb(254,254,254)" stroke-width="1" opacity="1" d="M 473.5 489 L 479 490.5 L 475.5 491 L 473.5 489 Z " /><path fill="rgb(254,254,254)" stroke="rgb(254,254,254)" stroke-width="1" opacity="1" d="M 553.5 490 L 554 492 L 550 491.5 L 553.5 490 Z " /><path fill="rgb(254,254,254)" stroke="rgb(254,254,254)" stroke-width="1" opacity="1" d="M 481.5 493 L 513 493.5 L 481.5 494 L 481.5 493 Z " /><path fill="rgb(254,254,254)" stroke="rgb(254,254,254)" stroke-width="1" opacity="1" d="M 474.5 494 Q 481.4 492 480 496 L 472 495.5 L 474.5 494 Z " /><path fill="rgb(254,254,254)" stroke="rgb(254,254,254)" stroke-width="1" opacity="1" d="M 550.5 494 L 552 494.5 L 548.5 496 L 548.5 495 L 550.5 494 Z " /><path fill="rgb(254,254,254)" stroke="rgb(254,254,254)" stroke-width="1" opacity="1" d="M 555.5 494 Q 559.3 493 558 496 L 554 495.5 L 555.5 494 Z " /><path fill="rgb(254,254,254)" stroke="rgb(254,254,254)" stroke-width="1" opacity="1" d="M 0 512 L 8 512 L 8 528 L 0 528 L 0 512 Z " /><path fill="rgb(254,254,254)" stroke="rgb(254,254,254)" stroke-width="1" opacity="1" d="M 1017.5 544 L 1019 558.5 L 1018 558.5 L 1017.5 552 L 1016.5 559 L 1016 552.5 L 1017.5 544 Z " /><path fill="rgb(254,254,254)" stroke="rgb(254,254,254)" stroke-width="1" opacity="1" d="M 1020.5 544 L 1022 559 L 1020 558.5 L 1020.5 544 Z " /><path fill="rgb(254,254,254)" stroke="rgb(254,254,254)" stroke-width="1" opacity="1" d="M 48 556 L 71.5 556 L 72 559 L 48.5 559 L 48 556 Z " /><path fill="rgb(254,254,254)" stroke="rgb(254,254,254)" stroke-width="1" opacity="1" d="M 192 556 L 200 556 L 200 559 L 192 559 L 192 556 Z " /><path fill="rgb(254,254,254)" stroke="rgb(254,254,254)" stroke-width="1" opacity="1" d="M 440 556 L 455.5 556 L 456 559 L 440.5 559 L 440 556 Z " /><path fill="rgb(254,254,254)" stroke="rgb(254,254,254)" stroke-width="1" opacity="1" d="M 488 556 L 503.5 556 L 504 559 L 488.5 559 L 488 556 Z " /><path fill="rgb(255,255,255)" stroke="rgb(255,255,255)" stroke-width="1" opacity="1" d="M 4 0 L 1019.5 0 L 1020 0.5 L 1020 7.5 L 1019 8.5 L 1019 16 L 1021 16.5 L 1021 39.5 Q 1018.3 41.3 1020 47.5 L 1021 48.5 L 1021 87.5 Q 1018.3 89.2 1020 95.5 Q 1022.8 97.2 1021 103.5 L 1020 104.5 L 1020 127.5 Q 1022.8 129.3 1021 135.5 L 1020 136.5 L 1020 191.5 L 1021 192.5 L 1021 207.5 L 1020 208.5 L 1020 239.5 L 1021 240.5 L 1021 255.5 L 1020 256.5 L 1020 279.5 Q 1022.8 281.3 1021 287.5 Q 1018.3 289.3 1020 295.5 L 1021 296.5 L 1021 311.5 L 1020 312.5 L 1020 327.5 Q 1022.8 329.3 1021 335.5 Q 1018.3 337.3 1020 343.5 L 1021 344.5 L 1021 407.5 Q 1018.3 409.2 1020 415.5 L 1021 416.5 L 1021 503.5 L 1020 504.5 L 1020 519.5 L 1021 520.5 L 1021 535.5 L 1023 544.5 L 1023 558.5 L 1022 558.5 L 1020.5 544 L 1019.5 559 L 1018.5 552 L 1017.5 559 L 1016.5 552 L 1016 559 L 504.5 559 L 503.5 556 L 488 556 L 487.5 559 L 456 559 L 455.5 556 L 440 556 L 439.5 559 L 200 559 L 200 556 L 192 556 L 191.5 559 L 72 559 L 71.5 556 L 48 556 L 47.5 559 L 0 559 L 0 528.5 L 0.5 528 L 8 528 L 8 512 L 0.5 512 L 0 511.5 L 0 456 L 8 456 L 8 440 L 0 440 L 0 424 L 8 424 L 8 416 L 0 416 L 0 400 L 8 400 L 8 392 L 0 392 L 0 384 L 8 384 L 8 376 L 0 376 L 0 360 L 8 360 L 8 344 L 0 344 L 0 336 L 8 336 L 8 328 L 0.5 328 L 0 327.5 L 0 296 L 8 296 L 8 280 L 0.5 280 L 0 279.5 L 0 232 L 8 232 L 8 216 L 0.5 216 L 0 215.5 L 0 184 L 8 184 L 8 176 L 0 176 L 0 168 L 7.5 168 L 8 167.5 L 8 136 L 0 136 L 0 128 L 8 128 L 8 112 L 0 112 L 0 88 L 8 88 L 8 72 L 0.5 72 L 0 71.5 L 0 8 L 4 8 L 4 0 Z M 545 63 L 543 66 Q 548 67 550 65 L 545 63 Z M 473 64 L 474 66 Q 475 63 473 64 Z M 476 64 L 476 66 L 482 66 L 482 64 L 476 64 Z M 467 65 L 464 66 L 466 70 L 471 69 L 467 65 Z M 489 67 L 488 68 L 480 68 L 480 70 L 476 70 L 478 69 L 478 68 Q 473 67 472 70 Q 466 69 468 73 L 471 74 L 469 75 L 470 77 Q 467 78 468 75 L 463 72 L 460 72 L 460 80 L 456 80 L 457 85 L 459 84 L 460 85 L 457 89 L 458 91 L 457 95 L 457 97 L 454 95 Q 453 90 456 90 Q 457 84 454 83 Q 455 78 451 80 Q 450 85 454 87 Q 455 89 452 88 L 452 86 L 450 92 L 450 95 Q 447 94 448 97 L 450 98 Q 449 95 452 96 L 451 98 L 452 100 L 452 113 L 451 113 L 449 116 L 448 115 L 450 112 L 445 115 L 440 116 Q 435 114 436 118 L 438 120 Q 434 119 435 122 Q 432 123 431 120 L 420 120 Q 418 126 422 128 L 424 127 Q 423 134 427 136 L 427 138 L 422 134 L 419 136 L 421 136 L 423 140 L 424 137 L 426 141 L 426 143 L 425 142 L 424 142 L 425 145 L 425 147 L 420 137 L 417 144 L 419 143 L 418 145 L 420 150 L 420 147 L 420 145 L 422 146 L 421 147 L 421 156 L 418 153 Q 419 149 416 150 L 415 154 L 417 160 L 418 156 L 418 160 L 421 159 L 420 161 L 420 248 L 416 248 L 416 256 L 420 256 L 420 264 L 419 258 L 418 258 Q 420 265 416 264 L 416 272 L 420 272 L 420 368 L 416 368 L 419 373 L 419 372 L 420 372 Q 418 378 423 376 L 425 382 L 423 386 L 425 390 L 428 391 L 429 394 L 428 394 L 430 397 Q 432 398 431 396 L 433 397 L 428 398 Q 427 402 432 400 L 432 405 L 440 405 L 440 408 L 449 406 L 453 407 L 448 407 L 449 413 L 449 411 L 450 411 Q 449 414 452 413 Q 454 418 449 416 L 449 424 L 450 425 L 450 456 Q 447 455 448 464 L 451 465 Q 452 468 449 467 Q 446 468 447 473 L 451 474 L 450 473 Q 453 471 452 467 L 453 467 Q 451 471 455 470 L 455 473 L 452 472 Q 450 477 454 476 L 455 480 L 457 476 L 458 479 L 456 487 Q 459 488 458 484 L 461 485 L 459 488 L 460 489 L 460 496 Q 465 498 464 494 L 467 493 L 471 494 L 472 492 Q 473 488 470 489 L 472 486 L 472 488 L 478 487 L 480 487 L 497 487 L 498 486 L 511 486 L 521 488 Q 527 490 529 487 L 545 487 L 547 488 L 548 490 Q 550 487 557 488 Q 555 490 559 492 L 560 492 L 560 488 L 563 487 L 564 488 L 572 488 L 573 476 L 574 480 Q 577 481 576 479 Q 578 477 575 476 L 577 473 L 575 466 L 576 463 L 576 448 L 584 448 L 584 440 L 576 440 L 576 447 L 575 447 L 575 432 L 580 432 L 580 424 L 575 424 L 575 417 L 574 416 L 575 411 L 576 413 L 576 410 L 574 410 L 575 408 L 570 407 L 570 406 Q 577 405 577 408 L 589 408 L 590 399 L 592 399 L 593 397 L 592 394 L 597 391 L 599 392 L 598 391 Q 597 388 600 389 L 600 385 Q 604 384 602 390 L 601 392 L 608 392 L 608 385 L 605 384 L 606 381 L 602 379 L 600 380 L 602 376 L 600 370 L 600 312 L 599 320 L 598 320 L 598 313 L 600 305 L 600 176 L 599 192 L 598 192 L 599 160 L 599 158 Q 598 152 602 154 L 602 145 L 599 152 L 598 152 L 599 150 L 598 145 L 601 144 L 602 139 L 606 133 Q 608 126 603 128 L 602 135 L 599 136 L 598 140 L 597 138 L 598 135 Q 600 129 597 128 L 597 120 L 592 120 L 592 122 L 591 120 L 592 120 L 592 116 L 584 116 L 583 115 L 580 116 Q 577 117 578 114 L 576 114 L 576 112 L 574 112 Q 575 106 572 104 L 572 98 L 574 97 Q 573 101 576 100 L 576 95 L 573 89 L 574 84 L 577 83 L 576 79 L 572 80 L 568 87 L 570 92 Q 572 97 568 96 L 568 100 L 566 94 L 567 91 L 563 85 L 564 83 Q 563 78 568 80 Q 569 83 566 82 L 568 86 L 570 83 L 570 80 L 572 80 L 572 72 L 561 72 Q 561 75 556 74 L 555 77 Q 551 78 552 76 L 551 76 L 545 75 Q 554 74 559 70 L 560 67 L 551 70 Q 543 71 544 68 L 497 68 Q 495 65 489 67 Z M 449 80 Q 446 85 450 84 L 449 80 Z M 576 106 L 575 111 L 576 111 L 576 106 Z M 432 112 Q 431 115 434 114 Q 435 111 432 112 Z M 417 128 L 416 133 L 418 133 L 417 128 Z M 419 128 L 418 132 L 419 132 L 419 128 Z M 608 141 L 606 143 Q 605 145 608 144 L 608 141 Z M 417 145 L 416 148 L 417 148 L 417 145 Z M 606 177 L 605 367 L 606 367 L 606 177 Z M 1016 360 L 1016 368 L 1018 368 L 1018 361 L 1016 360 Z M 606 378 L 608 380 Q 609 377 606 378 Z M 420 380 Q 418 386 423 384 Q 425 378 420 380 Z M 416 392 Q 415 395 418 394 Q 419 391 416 392 Z M 593 398 L 593 400 L 598 400 L 598 398 L 593 398 Z M 451 477 L 449 479 Q 448 481 451 480 L 451 477 Z M 478 488 L 473 490 L 476 491 L 480 490 L 481 494 L 543 494 L 543 492 L 496 493 L 496 492 L 511 492 L 511 490 L 497 490 L 496 491 L 482 491 L 481 488 L 478 488 Z M 554 490 L 550 492 L 554 492 L 554 490 Z M 475 494 L 472 496 L 480 496 Q 481 492 475 494 Z M 551 494 L 549 495 L 549 496 L 552 495 L 551 494 Z M 556 494 L 554 496 L 558 496 Q 559 493 556 494 Z M 1018 544 L 1017 552 L 1018 552 L 1018 544 Z " /><path fill="rgb(255,255,255)" stroke="rgb(255,255,255)" stroke-width="1" opacity="1" d="M 482.5 72 L 486 73.5 L 484.5 73 Q 481.5 73.5 482.5 72 Z " /><path fill="rgb(255,255,255)" stroke="rgb(255,255,255)" stroke-width="1" opacity="1" d="M 538.5 72 L 541 72.5 L 538.5 73 L 538.5 72 Z " /><path fill="rgb(255,255,255)" stroke="rgb(255,255,255)" stroke-width="1" opacity="1" d="M 472.5 75 L 475 75.5 L 472.5 76 L 472.5 75 Z " /><path fill="rgb(255,255,255)" stroke="rgb(255,255,255)" stroke-width="1" opacity="1" d="M 464.5 80 L 465.5 82 L 464.5 80 Z " /><path fill="rgb(255,255,255)" stroke="rgb(255,255,255)" stroke-width="1" opacity="1" d="M 573.5 82 L 573 83.5 L 570.5 88 L 570 86.5 L 573.5 82 Z " /><path fill="rgb(255,255,255)" stroke="rgb(255,255,255)" stroke-width="1" opacity="1" d="M 493.5 90 L 496 90.5 L 493.5 91 L 493.5 90 Z " /><path fill="rgb(255,255,255)" stroke="rgb(255,255,255)" stroke-width="1" opacity="1" d="M 520.5 90 L 528 90.5 L 520.5 91 L 520.5 90 Z " /><path fill="rgb(255,255,255)" stroke="rgb(255,255,255)" stroke-width="1" opacity="1" d="M 480.5 92 L 493 92.5 L 480.5 93 L 480.5 92 Z " /><path fill="rgb(255,255,255)" stroke="rgb(255,255,255)" stroke-width="1" opacity="1" d="M 534.5 92 L 544 92.5 L 536.5 94 L 534.5 92 Z " /><path fill="rgb(255,255,255)" stroke="rgb(255,255,255)" stroke-width="1" opacity="1" d="M 476 93 L 478 93.5 L 477 96 L 475 95.5 L 476 93 Z " /><path fill="rgb(255,255,255)" stroke="rgb(255,255,255)" stroke-width="1" opacity="1" d="M 488.5 96 L 487.5 98 L 488.5 96 Z " /><path fill="rgb(255,255,255)" stroke="rgb(255,255,255)" stroke-width="1" opacity="1" d="M 536.5 96 Q 538.8 95.3 538 97.5 L 536.5 96 Z " /><path fill="rgb(255,255,255)" stroke="rgb(255,255,255)" stroke-width="1" opacity="1" d="M 482 98 L 485 98.5 L 482 100.5 L 482 98 Z " /><path fill="rgb(255,255,255)" stroke="rgb(255,255,255)" stroke-width="1" opacity="1" d="M 541.5 99 L 542.5 101 Q 539.7 101.7 541.5 99 Z " /><path fill="rgb(255,255,255)" stroke="rgb(255,255,255)" stroke-width="1" opacity="1" d="M 547.5 100 L 548 103.5 L 546 104.5 Q 545.3 100.8 547.5 100 Z " /><path fill="rgb(255,255,255)" stroke="rgb(255,255,255)" stroke-width="1" opacity="1" d="M 472.5 103 L 474.5 103 L 477 104.5 L 476.5 107 L 472 105 L 472.5 103 Z " /><path fill="rgb(255,255,255)" stroke="rgb(255,255,255)" stroke-width="1" opacity="1" d="M 550.5 104 Q 554 105 553 110.5 L 552 110.5 Q 549 108 550.5 104 Z " /><path fill="rgb(255,255,255)" stroke="rgb(255,255,255)" stroke-width="1" opacity="1" d="M 471.5 106 L 472.5 110 L 473.5 108 L 474 111.5 L 473 114 Q 476.3 112.9 475 117 L 472 115.5 L 471.5 106 Z " /><path fill="rgb(255,255,255)" stroke="rgb(255,255,255)" stroke-width="1" opacity="1" d="M 512.5 110 L 520 110.5 L 512.5 111 L 512.5 110 Z " /><path fill="rgb(255,255,255)" stroke="rgb(255,255,255)" stroke-width="1" opacity="1" d="M 497.5 111 L 498.5 112 L 506.5 112 L 510.5 111 L 511.5 112 L 523.5 112 L 527.5 111 L 527.5 112 L 524 112 L 523.5 116 L 512.5 116 L 511.5 115 L 497.5 115 L 495.5 118 L 494.5 116 L 492.5 117 L 493 115.5 L 493.5 114 L 495.5 115 Q 493.8 113 497.5 111 Z " /><path fill="rgb(255,255,255)" stroke="rgb(255,255,255)" stroke-width="1" opacity="1" d="M 547.5 112 L 548 114.5 L 547 114.5 L 547.5 112 Z " /><path fill="rgb(255,255,255)" stroke="rgb(255,255,255)" stroke-width="1" opacity="1" d="M 571.5 113 L 574 113.5 L 571.5 114 L 571.5 113 Z " /><path fill="rgb(255,255,255)" stroke="rgb(255,255,255)" stroke-width="1" opacity="1" d="M 529.5 114 L 532 115.5 Q 533.3 119.7 528.5 118 L 527 118.5 Q 526.2 115.9 529.5 117 L 529.5 116 L 528 115.5 L 529.5 114 Z " /><path fill="rgb(255,255,255)" stroke="rgb(255,255,255)" stroke-width="1" opacity="1" d="M 572.5 115 L 576 117.5 Q 574.8 120.8 571 120 L 570 117.5 L 572.5 115 Z " /><path fill="rgb(255,255,255)" stroke="rgb(255,255,255)" stroke-width="1" opacity="1" d="M 451.5 116 L 453 116.5 L 452 119 Q 447.9 120.3 449 117 L 451.5 116 Z " /><path fill="rgb(255,255,255)" stroke="rgb(255,255,255)" stroke-width="1" opacity="1" d="M 512.5 117 L 523.5 117 L 524 120 L 497.5 120 L 497 118 L 511.5 118 L 512.5 117 Z " /><path fill="rgb(255,255,255)" stroke="rgb(255,255,255)" stroke-width="1" opacity="1" d="M 447.5 118 L 446.5 120 L 444 119.5 L 447.5 118 Z " /><path fill="rgb(255,255,255)" stroke="rgb(255,255,255)" stroke-width="1" opacity="1" d="M 582.5 118 Q 586.3 117.3 587 119.5 L 584.5 120 L 582.5 118 Z " /><path fill="rgb(255,255,255)" stroke="rgb(255,255,255)" stroke-width="1" opacity="1" d="M 439.5 119 L 441 121.5 L 439 120.5 L 439.5 119 Z " /><path fill="rgb(255,255,255)" stroke="rgb(255,255,255)" stroke-width="1" opacity="1" d="M 579.5 119 L 587 122 L 586.5 124 L 584 123.5 L 583.5 122 L 582 122.5 L 582.5 121 Q 578.8 120.8 579.5 119 Z " /><path fill="rgb(255,255,255)" stroke="rgb(255,255,255)" stroke-width="1" opacity="1" d="M 547.5 120 L 548 126.5 L 547 126.5 L 547.5 120 Z " /><path fill="rgb(255,255,255)" stroke="rgb(255,255,255)" stroke-width="1" opacity="1" d="M 472.5 121 L 473 125.5 L 472 125.5 L 472.5 121 Z " /><path fill="rgb(255,255,255)" stroke="rgb(255,255,255)" stroke-width="1" opacity="1" d="M 550.5 124 L 551 126.5 L 550 126.5 L 550.5 124 Z " /><path fill="rgb(255,255,255)" stroke="rgb(255,255,255)" stroke-width="1" opacity="1" d="M 474.5 128 L 475 133.5 L 473 132.5 Q 472.3 128.8 474.5 128 Z " /><path fill="rgb(255,255,255)" stroke="rgb(255,255,255)" stroke-width="1" opacity="1" d="M 550.5 131 L 551 133 Q 553.7 134.1 553 131.5 L 554 131.5 L 553 136 Q 556 137.3 555 133.5 L 556 133.5 L 555 137.5 L 556.5 137 L 563.5 136 L 565.5 139 L 558.5 137 L 556 138 L 557.5 141 L 561.5 140 L 561.5 141 L 558 142.5 Q 559.8 145.8 561.5 142 Q 567.5 141.5 569.5 145 L 576 145 L 577.5 149 L 579 148.5 L 577 160 L 581 160 L 581 167.5 L 580 167.5 L 579.5 161 L 579 174.5 L 580 175.5 L 581 192 Q 577.5 190.9 579 198.5 L 580 199.5 L 580 208 L 578 208.5 L 578 224.5 L 579 225.5 L 580 271.5 L 579 272.5 L 578 302.5 L 580 304.5 L 580 335.5 L 579 336.5 L 579 368.5 L 578 373.5 L 579 376 L 576 376 L 576 383.5 L 576.5 385 L 573.5 383 L 572.5 384 L 456 384 L 456 380 L 448.5 380 L 445.5 379 L 444 379.5 L 445 377.5 L 444.5 374 L 446.5 375 L 447 373.5 L 446 368 L 444 367.5 L 444 272.5 L 444 270.5 L 444 192.5 L 445 191.5 L 445 176.5 L 444 175.5 L 444 161.5 L 444 159.5 L 444 152.5 L 446 152 Q 445 155 448 154 Q 446.8 150.3 452 152 L 452 143.5 L 454.5 143 L 457.5 144 L 461.5 142 Q 463.5 144.8 468 144 L 468 142 L 473 142 L 473 140.5 L 474 138 Q 469.3 138.9 467 136.5 L 467.5 134 Q 469 136.5 470.5 133 L 472 133.5 L 471 136 L 476.5 135 L 477 137 L 481 136 L 481.5 134 L 484.5 139 L 485 137 L 487.5 136 L 488.5 141 L 492 138.5 L 492.5 137 L 495 140.5 L 494 143.5 Q 495.5 146.5 497 143.5 L 496 140 L 511.5 140 L 512 138 L 497 137.5 L 526.5 137 L 529 138.5 L 528.5 140 Q 534.6 141.3 534 138.5 L 535 138.5 Q 534.4 141.3 540.5 140 L 540.5 139 L 539 138.5 Q 544.1 138.6 545.5 135 L 550.5 136 L 550 134.5 L 550.5 131 Z M 550 138 L 548 141 L 546 144 L 548 144 L 553 140 Q 554 136 550 138 Z M 513 140 L 512 142 L 530 142 L 514 141 L 513 140 Z M 479 141 L 477 144 L 482 145 Q 486 146 487 144 L 486 141 L 484 142 L 479 141 Z M 493 142 L 491 144 L 493 144 L 493 142 Z M 532 142 Q 531 145 534 144 Q 535 141 532 142 Z M 536 142 L 536 144 L 539 145 L 541 144 L 541 142 L 536 142 Z M 514 143 L 514 144 L 527 144 L 514 143 Z M 447 156 Q 444 161 448 160 L 447 156 Z M 446 336 L 446 353 L 448 353 L 448 337 L 446 336 Z M 447 376 L 448 378 Q 449 375 447 376 Z " /><path fill="rgb(255,255,255)" stroke="rgb(255,255,255)" stroke-width="1" opacity="1" d="M 453.5 135 L 458 136 L 459.5 139 L 464 137 Q 465.8 142.3 458.5 140 L 456 141.5 Q 456.8 138.9 453.5 140 L 453.5 139 L 456 138.5 L 450 137.5 L 453.5 135 Z " /><path fill="rgb(255,255,255)" stroke="rgb(255,255,255)" stroke-width="1" opacity="1" d="M 566.5 136 Q 570.3 135.3 571 137.5 L 567.5 138 L 566.5 136 Z " /><path fill="rgb(255,255,255)" stroke="rgb(255,255,255)" stroke-width="1" opacity="1" d="M 447.5 139 L 445.5 142 L 445 140 L 447.5 139 Z " /><path fill="rgb(255,255,255)" stroke="rgb(255,255,255)" stroke-width="1" opacity="1" d="M 568.5 139 L 572 139.5 L 568 140 L 567.5 142 L 566.5 140 L 568.5 139 Z " /><path fill="rgb(255,255,255)" stroke="rgb(255,255,255)" stroke-width="1" opacity="1" d="M 426.5 145 L 427 147.5 L 426 147.5 L 426.5 145 Z " /><path fill="rgb(255,255,255)" stroke="rgb(255,255,255)" stroke-width="1" opacity="1" d="M 580.5 152 L 581 158.5 L 580 158.5 L 580.5 152 Z " /><path fill="rgb(255,255,255)" stroke="rgb(255,255,255)" stroke-width="1" opacity="1" d="M 441.5 154 L 442 159.5 L 441 159.5 L 441.5 154 Z " /><path fill="rgb(255,255,255)" stroke="rgb(255,255,255)" stroke-width="1" opacity="1" d="M 423 157 L 426 157.5 L 424.5 161 L 423 157 Z " /><path fill="rgb(255,255,255)" stroke="rgb(255,255,255)" stroke-width="1" opacity="1" d="M 441.5 176 L 442 191.5 L 441 191.5 L 441.5 176 Z " /><path fill="rgb(255,255,255)" stroke="rgb(255,255,255)" stroke-width="1" opacity="1" d="M 582.5 199 L 583 201.5 L 582 201.5 L 582.5 199 Z " /><path fill="rgb(255,255,255)" stroke="rgb(255,255,255)" stroke-width="1" opacity="1" d="M 424.5 200 L 425 223.5 L 424 223.5 L 424.5 200 Z " /><path fill="rgb(255,255,255)" stroke="rgb(255,255,255)" stroke-width="1" opacity="1" d="M 598.5 200 L 599 207.5 L 598 207.5 L 598.5 200 Z " /><path fill="rgb(255,255,255)" stroke="rgb(255,255,255)" stroke-width="1" opacity="1" d="M 598.5 216 L 599 223.5 L 598 223.5 L 598.5 216 Z " /><path fill="rgb(255,255,255)" stroke="rgb(255,255,255)" stroke-width="1" opacity="1" d="M 582.5 223 L 583 254.5 L 582 254.5 L 582.5 223 Z " /><path fill="rgb(255,255,255)" stroke="rgb(255,255,255)" stroke-width="1" opacity="1" d="M 424.5 232 L 425 239.5 L 424 239.5 L 424.5 232 Z " /><path fill="rgb(255,255,255)" stroke="rgb(255,255,255)" stroke-width="1" opacity="1" d="M 598.5 240 L 599 279.5 L 598 279.5 L 598.5 240 Z " /><path fill="rgb(255,255,255)" stroke="rgb(255,255,255)" stroke-width="1" opacity="1" d="M 424.5 272 L 425 287.5 L 424 287.5 L 424.5 272 Z " /><path fill="rgb(255,255,255)" stroke="rgb(255,255,255)" stroke-width="1" opacity="1" d="M 582.5 273 L 583 304.5 L 582 304.5 L 582.5 273 Z " /><path fill="rgb(255,255,255)" stroke="rgb(255,255,255)" stroke-width="1" opacity="1" d="M 598.5 288 L 599 295.5 L 598 295.5 L 598.5 288 Z " /><path fill="rgb(255,255,255)" stroke="rgb(255,255,255)" stroke-width="1" opacity="1" d="M 598.5 336 L 599 359.5 L 598 359.5 L 598.5 336 Z " /><path fill="rgb(255,255,255)" stroke="rgb(255,255,255)" stroke-width="1" opacity="1" d="M 582.5 337 L 583 350.5 L 582 350.5 L 582.5 337 Z " /><path fill="rgb(255,255,255)" stroke="rgb(255,255,255)" stroke-width="1" opacity="1" d="M 441.5 353 L 442 368.5 L 441 368.5 L 441.5 353 Z " /><path fill="rgb(255,255,255)" stroke="rgb(255,255,255)" stroke-width="1" opacity="1" d="M 577.5 377 L 578.5 379 Q 575.7 379.7 577.5 377 Z " /><path fill="rgb(255,255,255)" stroke="rgb(255,255,255)" stroke-width="1" opacity="1" d="M 426.5 380 L 427 383.5 L 426 383.5 L 426.5 380 Z " /><path fill="rgb(255,255,255)" stroke="rgb(255,255,255)" stroke-width="1" opacity="1" d="M 597 382 L 600 382.5 L 598 383 L 597.5 385 L 597 382 Z " /><path fill="rgb(255,255,255)" stroke="rgb(255,255,255)" stroke-width="1" opacity="1" d="M 450.5 384 L 453 385.5 L 451.5 386 L 450.5 384 Z " /><path fill="rgb(255,255,255)" stroke="rgb(255,255,255)" stroke-width="1" opacity="1" d="M 456.5 385 L 464 385.5 L 456.5 386 L 456.5 385 Z " /><path fill="rgb(255,255,255)" stroke="rgb(255,255,255)" stroke-width="1" opacity="1" d="M 536.5 385 L 544 385.5 L 536.5 386 L 536.5 385 Z " /><path fill="rgb(255,255,255)" stroke="rgb(255,255,255)" stroke-width="1" opacity="1" d="M 561.5 385 L 564 385.5 L 561.5 386 L 561.5 385 Z " /><path fill="rgb(255,255,255)" stroke="rgb(255,255,255)" stroke-width="1" opacity="1" d="M 565.5 385 L 568 385.5 L 565.5 386 L 565.5 385 Z " /><path fill="rgb(255,255,255)" stroke="rgb(255,255,255)" stroke-width="1" opacity="1" d="M 458.5 387 L 461 387.5 L 458.5 388 L 458.5 387 Z " /><path fill="rgb(255,255,255)" stroke="rgb(255,255,255)" stroke-width="1" opacity="1" d="M 529.5 387 L 544 387.5 L 529.5 388 L 529.5 387 Z " /><path fill="rgb(255,255,255)" stroke="rgb(255,255,255)" stroke-width="1" opacity="1" d="M 589.5 395 L 590 397 L 588 396.5 L 589.5 395 Z " /><path fill="rgb(255,255,255)" stroke="rgb(255,255,255)" stroke-width="1" opacity="1" d="M 437.5 397 L 438 399.5 L 434.5 401 L 434.5 398 L 437.5 397 Z " /><path fill="rgb(255,255,255)" stroke="rgb(255,255,255)" stroke-width="1" opacity="1" d="M 472.5 405 L 477 405.5 L 474 406.5 L 478 407 Q 477 404 480 405 L 480.5 407 L 495.5 407 L 496.5 408 L 542.5 408 L 544.5 405 L 546 411 L 543.5 410 L 543 412 Q 546.8 410.5 546 413.5 L 547 415.5 L 545 428 L 543 427.5 L 544 425 L 536.5 424 L 526.5 426 L 526.5 425 Q 528.8 425.8 528 423.5 L 528 421.5 Q 529.3 417.8 525.5 419 L 520 422.5 L 520.5 425 L 523 425.5 L 520.5 426 L 518.5 425 L 514 430.5 L 517 431.5 L 514.5 432 L 512.5 431 L 510 432 L 511 434.5 Q 508.5 436 512 437.5 Q 511.2 440.5 515 439 L 515.5 437 L 516 438.5 L 515.5 440 L 519 440.5 L 517 441 L 514.5 446 Q 510.8 445 512 448 L 515.5 448 L 521.5 445 L 525 446 Q 523.9 448.7 526.5 448 Q 528 450.5 529.5 447 L 536 446.5 L 528 445.5 L 536.5 444 L 536.5 446 L 549.5 449 L 552 446.5 L 552 442.5 Q 552.8 440.3 550.5 441 L 549 441.5 L 552 440 L 552.5 438 L 553 439.5 Q 550.5 441 554 442.5 Q 555 447.5 552 448.5 L 552 462.5 L 550.5 464 L 548.5 463 L 548 467 L 544 466 L 543.5 468 L 496.5 468 L 495.5 467 L 480.5 467 L 474.5 465 L 471.5 467 L 471.5 466 L 474 464.5 L 472.5 464 L 469.5 466 L 472 462.5 L 472 449.5 L 470 448.5 L 470 439.5 L 471 439.5 L 472.5 442 L 473 440 Q 476.8 438.5 476 441.5 L 478 444.5 L 476.5 444 L 472.5 445 L 471 444.5 Q 470.3 448.3 472.5 449 L 475.5 448 L 477.5 448 L 479.5 449 Q 481 445.5 482.5 448 L 495.5 447 L 498.5 448 L 498.5 447 L 497 446.5 L 498.5 446 Q 499.8 449 504 448 Q 505.3 444.7 500.5 446 L 499.5 444 L 503.5 445 L 504 443.5 L 504 441.5 L 506 435.5 L 504 431.5 L 506 430.5 L 502 427.5 L 504 427 L 503.5 424 L 478 424 L 477.5 426 L 476.5 417 L 474 430.5 L 475.5 433 L 471 431.5 L 472 430.5 L 472 417.5 L 470 412 Q 475 410.8 476.5 414 Q 478.3 410.9 480 412.5 L 480 410 L 478 410 Q 479.1 407.3 476.5 408 Q 475.3 411 471 410 L 473 406.5 L 472.5 405 Z M 496 410 L 497 412 L 528 412 L 528 410 L 496 410 Z M 481 414 L 481 416 Q 479 417 482 418 L 486 418 L 482 417 L 493 416 L 494 415 L 497 417 L 502 415 L 517 415 L 518 416 L 523 415 L 543 416 L 543 414 L 481 414 Z M 493 417 L 493 418 L 495 418 L 493 417 Z M 521 418 L 520 420 L 522 419 L 521 418 Z M 487 420 Q 488 423 496 422 L 496 420 L 487 420 Z M 502 420 L 503 421 L 504 422 Q 505 419 502 420 Z M 509 441 L 508 445 L 510 444 Q 513 445 512 442 L 511 442 L 509 441 Z M 537 447 L 537 448 L 540 448 L 537 447 Z M 548 449 L 547 463 L 548 463 L 548 449 Z M 496 463 L 496 466 L 544 466 L 544 465 L 543 463 L 496 463 Z " /><path fill="rgb(255,255,255)" stroke="rgb(255,255,255)" stroke-width="1" opacity="1" d="M 550.5 407 Q 553.3 408.4 552 413 Q 555 411.8 554 415.5 L 553 416.5 L 553 424 L 548 424 L 548 417.5 L 549 415.5 L 549 413.5 L 548 408 L 550.5 407 Z " /><path fill="rgb(255,255,255)" stroke="rgb(255,255,255)" stroke-width="1" opacity="1" d="M 554.5 407 L 553.5 409 L 554.5 407 Z " /><path fill="rgb(255,255,255)" stroke="rgb(255,255,255)" stroke-width="1" opacity="1" d="M 450.5 408 Q 455.8 406.3 454 411.5 L 453 411.5 L 451.5 409 L 450.5 408 Z " /><path fill="rgb(255,255,255)" stroke="rgb(255,255,255)" stroke-width="1" opacity="1" d="M 451.5 417 L 452 423.5 L 451 423.5 L 451.5 417 Z " /><path fill="rgb(255,255,255)" stroke="rgb(255,255,255)" stroke-width="1" opacity="1" d="M 498.5 425 L 503 425.5 L 498.5 426 L 498.5 425 Z " /><path fill="rgb(255,255,255)" stroke="rgb(255,255,255)" stroke-width="1" opacity="1" d="M 521.5 427 L 524 427.5 L 521.5 428 L 521.5 427 Z " /><path fill="rgb(255,255,255)" stroke="rgb(255,255,255)" stroke-width="1" opacity="1" d="M 550.5 431 Q 553.3 432.3 551 433.5 L 550.5 435 L 548.5 432 L 550.5 433 L 550.5 431 Z " /><path fill="rgb(255,255,255)" stroke="rgb(255,255,255)" stroke-width="1" opacity="1" d="M 513.5 434 L 514.5 436 L 513.5 434 Z " /><path fill="rgb(255,255,255)" stroke="rgb(255,255,255)" stroke-width="1" opacity="1" d="M 547.5 442 L 548 446.5 L 546 445.5 L 547.5 442 Z " /><path fill="rgb(255,255,255)" stroke="rgb(255,255,255)" stroke-width="1" opacity="1" d="M 489.5 443 L 492 443.5 L 489.5 444 L 489.5 443 Z " /><path fill="rgb(255,255,255)" stroke="rgb(255,255,255)" stroke-width="1" opacity="1" d="M 480.5 444 L 481.5 446 Q 478.7 446.7 480.5 444 Z " /><path fill="rgb(255,255,255)" stroke="rgb(255,255,255)" stroke-width="1" opacity="1" d="M 538.5 444 L 542 444.5 L 538.5 445 L 538.5 444 Z " /><path fill="rgb(255,255,255)" stroke="rgb(255,255,255)" stroke-width="1" opacity="1" d="M 483.5 445 L 485.5 446 L 487 445.5 Q 485.8 448.2 484.5 446 L 483.5 445 Z " /><path fill="rgb(255,255,255)" stroke="rgb(255,255,255)" stroke-width="1" opacity="1" d="M 553.5 464 L 555 466.5 L 552 468 L 553.5 464 Z " /><path fill="rgb(255,255,255)" stroke="rgb(255,255,255)" stroke-width="1" opacity="1" d="M 475.5 470 L 480 470.5 L 475.5 471 L 475.5 470 Z " /><path fill="rgb(255,255,255)" stroke="rgb(255,255,255)" stroke-width="1" opacity="1" d="M 572 472 Q 575 471 574 474 Q 571 475 572 472 Z " /><path fill="rgb(255,255,255)" stroke="rgb(255,255,255)" stroke-width="1" opacity="1" d="M 568.5 478 L 569 480 L 567 479.5 L 568.5 478 Z " /><path fill="rgb(255,255,255)" stroke="rgb(255,255,255)" stroke-width="1" opacity="1" d="M 565.5 484 Q 569.3 483 568 486 L 565.5 484 Z " /></svg>